<svg width="60" height="60" viewBox="0 0 60 60" fill="none" xmlns="http://www.w3.org/2000/svg">
<circle cx="30" cy="30" r="30" fill="#00C1E7"/>
<g clip-path="url(#clip0_3746_786)">
<rect width="25.0003" height="25" transform="translate(17.5 17.5)" fill="#00C1E7"/>
<path d="M36.2495 17.5052L33.0075 17.5C29.3653 17.5 27.0116 19.9149 27.0116 23.6525V26.4893H23.752C23.4703 26.4893 23.2422 26.7176 23.2422 26.9993V31.1094C23.2422 31.3911 23.4705 31.6191 23.752 31.6191H27.0116V41.9902C27.0116 42.2719 27.2397 42.5 27.5213 42.5H31.7742C32.0559 42.5 32.284 42.2716 32.284 41.9902V31.6191H36.0953C36.3769 31.6191 36.605 31.3911 36.605 31.1094L36.6066 26.9993C36.6066 26.864 36.5527 26.7345 36.4573 26.6388C36.3618 26.5431 36.2318 26.4893 36.0966 26.4893H32.284V24.0845C32.284 22.9287 32.5594 22.342 34.065 22.342L36.249 22.3412C36.5304 22.3412 36.7585 22.1128 36.7585 21.8314V18.015C36.7585 17.7338 36.5306 17.5057 36.2495 17.5052Z" fill="white"/>
</g>
<defs>
<clipPath id="clip0_3746_786">
<rect width="25.0003" height="25" fill="white" transform="translate(17.5 17.5)"/>
</clipPath>
</defs>
</svg>
