<svg width="40" height="40" viewBox="0 0 40 40" fill="none" xmlns="http://www.w3.org/2000/svg">
<rect width="40" height="40" rx="4" fill="#F9B208"/>
<g clip-path="url(#clip0_266_9245)">
<path d="M31.5358 12.888C31.3004 13.0099 31.0263 13.0334 30.7736 12.9532C30.5209 12.873 30.3104 12.6958 30.1883 12.4605C29.2338 10.5749 27.7891 8.98114 26.0058 7.84677C25.8947 7.77667 25.7985 7.68538 25.7226 7.57809C25.6468 7.47081 25.5928 7.34963 25.5638 7.22149C25.5348 7.09334 25.5313 6.96074 25.5535 6.83124C25.5757 6.70175 25.6232 6.5779 25.6933 6.46677C25.7634 6.35564 25.8547 6.2594 25.962 6.18355C26.0693 6.1077 26.1905 6.05373 26.3186 6.02471C26.4468 5.99569 26.5794 5.9922 26.7089 6.01443C26.8384 6.03666 26.9622 6.08417 27.0733 6.15427C29.1516 7.48494 30.8391 9.34372 31.9633 11.5405C32.0852 11.7759 32.1087 12.0501 32.0285 12.3028C31.9483 12.5554 31.7711 12.7659 31.5358 12.888ZM7.99958 13.0005C8.18278 13.0004 8.36245 12.95 8.51896 12.8548C8.67547 12.7596 8.80281 12.6232 8.88708 12.4605C9.84158 10.5749 11.2864 8.98114 13.0696 7.84677C13.294 7.70521 13.453 7.48029 13.5116 7.22149C13.5702 6.96269 13.5236 6.69121 13.3821 6.46677C13.2405 6.24233 13.0156 6.08332 12.7568 6.02471C12.498 5.96611 12.2265 6.01271 12.0021 6.15427C9.92383 7.48494 8.23631 9.34372 7.11208 11.5405C7.03313 11.6929 6.99473 11.8631 7.00058 12.0346C7.00643 12.2061 7.05634 12.3733 7.14549 12.52C7.23465 12.6666 7.36005 12.7879 7.50963 12.872C7.65922 12.9562 7.82794 13.0004 7.99958 13.0005ZM31.2621 25.993C31.4392 26.2968 31.5332 26.642 31.5344 26.9937C31.5356 27.3453 31.444 27.6911 31.269 27.9961C31.0939 28.3011 30.8415 28.5546 30.5372 28.7309C30.2329 28.9073 29.8875 29.0003 29.5358 29.0005H24.4358C24.2063 30.1308 23.5931 31.147 22.7001 31.8769C21.8071 32.6068 20.6892 33.0055 19.5358 33.0055C18.3825 33.0055 17.2646 32.6068 16.3716 31.8769C15.4786 31.147 14.8653 30.1308 14.6358 29.0005H9.53583C9.18436 28.9998 8.83927 28.9065 8.53534 28.73C8.23141 28.5535 7.97936 28.3 7.80458 27.9951C7.6298 27.6901 7.53848 27.3445 7.53979 26.993C7.54111 26.6416 7.63503 26.2966 7.81208 25.993C8.93833 24.0493 9.53583 21.2855 9.53583 18.0005C9.53583 15.3484 10.5894 12.8048 12.4648 10.9294C14.3401 9.05409 16.8837 8.00052 19.5358 8.00052C22.188 8.00052 24.7315 9.05409 26.6069 10.9294C28.4823 12.8048 29.5358 15.3484 29.5358 18.0005C29.5358 21.2843 30.1333 24.048 31.2621 25.993ZM22.3633 29.0005H16.7083C16.9155 29.5848 17.2986 30.0905 17.8049 30.4482C18.3112 30.8059 18.9159 30.9979 19.5358 30.9979C20.1557 30.9979 20.7604 30.8059 21.2667 30.4482C21.7731 30.0905 22.1562 29.5848 22.3633 29.0005Z" fill="white"/>
</g>
<defs>
<clipPath id="clip0_266_9245">
<rect width="32" height="32" fill="white" transform="translate(4 4)"/>
</clipPath>
</defs>
</svg>
