<svg width="40" height="40" viewBox="0 0 40 40" fill="none" xmlns="http://www.w3.org/2000/svg">
<rect width="40" height="40" rx="4" fill="#F9B208"/>
<g clip-path="url(#clip0_266_9254)">
<path d="M33.6362 24.9725L30.8225 27.2963L31.6787 30.76C31.7258 30.951 31.7154 31.1516 31.649 31.3367C31.5826 31.5218 31.463 31.6833 31.3053 31.8008C31.1476 31.9183 30.9588 31.9868 30.7624 31.9975C30.566 32.0083 30.3708 31.9609 30.2013 31.8613L27 29.9775L23.7987 31.8613C23.6292 31.9609 23.434 32.0083 23.2376 31.9975C23.0412 31.9868 22.8524 31.9183 22.6947 31.8008C22.537 31.6833 22.4174 31.5218 22.351 31.3367C22.2846 31.1516 22.2742 30.951 22.3213 30.76L23.1775 27.2963L20.3638 24.9725C20.2103 24.8456 20.0983 24.6758 20.0419 24.4848C19.9856 24.2938 19.9876 24.0904 20.0476 23.9005C20.1076 23.7106 20.2229 23.543 20.3788 23.4191C20.5347 23.2952 20.724 23.2207 20.9225 23.205L24.6525 22.9163L26.0812 19.6038C26.1585 19.4241 26.2866 19.271 26.4499 19.1635C26.6132 19.0559 26.8045 18.9986 27 18.9986C27.1955 18.9986 27.3868 19.0559 27.5501 19.1635C27.7134 19.271 27.8415 19.4241 27.9188 19.6038L29.3475 22.9163L33.0775 23.205C33.276 23.2207 33.4653 23.2952 33.6212 23.4191C33.7771 23.543 33.8924 23.7106 33.9524 23.9005C34.0124 24.0904 34.0144 24.2938 33.9581 24.4848C33.9018 24.6758 33.7897 24.8456 33.6362 24.9725ZM20.07 30C20.07 30.2652 19.9646 30.5196 19.7771 30.7071C19.5896 30.8947 19.3352 31 19.07 31H8.9225C8.41282 30.9993 7.92421 30.7966 7.56382 30.4362C7.20342 30.0758 7.00066 29.5872 7 29.0775V11C7 10.4696 7.21071 9.96087 7.58579 9.5858C7.96086 9.21072 8.46957 9.00001 9 9.00001H15.5863C15.849 8.99917 16.1093 9.05057 16.352 9.15121C16.5947 9.25185 16.815 9.39973 17 9.58626L20.4137 13H31C31.5304 13 32.0391 13.2107 32.4142 13.5858C32.7893 13.9609 33 14.4696 33 15V19C33 19.2652 32.8946 19.5196 32.7071 19.7071C32.5196 19.8947 32.2652 20 32 20C31.7348 20 31.4804 19.8947 31.2929 19.7071C31.1054 19.5196 31 19.2652 31 19V15H9V29H19.07C19.3352 29 19.5896 29.1054 19.7771 29.2929C19.9646 29.4804 20.07 29.7348 20.07 30ZM9 13H17.5863L15.5863 11H9V13Z" fill="white"/>
</g>
<defs>
<clipPath id="clip0_266_9254">
<rect width="32" height="32" fill="white" transform="translate(4 4)"/>
</clipPath>
</defs>
</svg>
