<svg width="40" height="40" viewBox="0 0 40 40" fill="none" xmlns="http://www.w3.org/2000/svg">
<rect width="40" height="40" rx="4" fill="#F9B208"/>
<g clip-path="url(#clip0_266_9237)">
<path d="M28 13V27C28 27.5304 27.7893 28.0391 27.4142 28.4142C27.0391 28.7893 26.5304 29 26 29H8C7.46957 29 6.96086 28.7893 6.58579 28.4142C6.21071 28.0391 6 27.5304 6 27V13C6 12.4696 6.21071 11.9609 6.58579 11.5858C6.96086 11.2107 7.46957 11 8 11H26C26.5304 11 27.0391 11.2107 27.4142 11.5858C27.7893 11.9609 28 12.4696 28 13ZM35.25 13.0312C35.1089 12.9967 34.9621 12.9925 34.8193 13.0188C34.6765 13.045 34.5408 13.1013 34.4212 13.1838L30.2225 15.9825C30.154 16.0282 30.0979 16.0901 30.059 16.1627C30.0202 16.2353 29.9999 16.3164 30 16.3988V23.6012C29.9999 23.6836 30.0202 23.7647 30.059 23.8373C30.0979 23.9099 30.154 23.9718 30.2225 24.0175L34.445 26.8325C34.603 26.9379 34.7879 26.9962 34.9778 27.0004C35.1677 27.0046 35.3549 26.9546 35.5175 26.8563C35.6679 26.7606 35.7912 26.628 35.8757 26.4711C35.9602 26.3142 36.003 26.1382 36 25.96V14C36.0001 13.7782 35.9265 13.5627 35.7907 13.3873C35.655 13.212 35.4647 13.0867 35.25 13.0312Z" fill="white"/>
</g>
<defs>
<clipPath id="clip0_266_9237">
<rect width="32" height="32" fill="white" transform="translate(4 4)"/>
</clipPath>
</defs>
</svg>
