<svg width="40" height="40" viewBox="0 0 40 40" fill="none" xmlns="http://www.w3.org/2000/svg">
<rect width="40" height="40" rx="4" fill="#F9B208"/>
<g clip-path="url(#clip0_266_9258)">
<path d="M33.5002 20.0002C33.5003 17.429 32.7379 14.9156 31.3094 12.7777C29.8809 10.6398 27.8506 8.97354 25.4751 7.98958C23.0997 7.00563 20.4858 6.74818 17.964 7.24981C15.4422 7.75144 13.1258 8.9896 11.3077 10.8077C9.4896 12.6258 8.25144 14.9422 7.74981 17.464C7.24818 19.9858 7.50563 22.5997 8.48958 24.9751C9.47354 27.3506 11.1398 29.3809 13.2777 30.8094C15.4156 32.2379 17.929 33.0003 20.5002 33.0002H20.5115C23.9573 32.9972 27.2611 31.6263 29.6966 29.1886C32.1321 26.751 33.5002 23.4461 33.5002 20.0002ZM10.6477 15.1152L17.049 16.284L10.3315 24.1915C9.73809 22.7426 9.45943 21.1841 9.51395 19.6194C9.56847 18.0546 9.95494 16.5193 10.6477 15.1152ZM30.669 15.8077C31.2624 17.2568 31.5411 18.8155 31.4865 20.3805C31.432 21.9454 31.0456 23.4809 30.3527 24.8852L23.9515 23.7165L30.669 15.8077ZM29.659 13.9077L25.444 18.8752L21.954 9.09773C24.3499 9.41109 26.5744 10.5101 28.279 12.2227C28.7931 12.7378 29.2554 13.3022 29.659 13.9077ZM19.804 9.02398L21.9927 15.149L11.7877 13.2902C12.076 12.9145 12.3879 12.5576 12.7215 12.2215C14.6105 10.3234 17.131 9.18546 19.804 9.02398ZM11.3415 26.0927L15.5565 21.1252L19.0465 30.8977C17.4937 30.6908 16.0031 30.1547 14.6743 29.3251C13.3455 28.4956 12.2092 27.3919 11.3415 26.0877V26.0927ZM21.1965 30.9752L19.0077 24.8502L21.8927 25.3752L29.2077 26.7115C28.2549 27.955 27.0461 28.9793 25.6631 29.7152C24.2801 30.451 22.7552 30.8811 21.1915 30.9765L21.1965 30.9752Z" fill="white"/>
</g>
<defs>
<clipPath id="clip0_266_9258">
<rect width="32" height="32" fill="white" transform="translate(4 4)"/>
</clipPath>
</defs>
</svg>
