<svg width="40" height="40" viewBox="0 0 40 40" fill="none" xmlns="http://www.w3.org/2000/svg">
<rect width="40" height="40" rx="4" fill="#F9B208"/>
<g clip-path="url(#clip0_266_9241)">
<path d="M21 19V31C21 31.2652 20.8946 31.5196 20.7071 31.7071C20.5196 31.8946 20.2652 32 20 32C19.7348 32 19.4804 31.8946 19.2929 31.7071C19.1054 31.5196 19 31.2652 19 31V19C19 18.7348 19.1054 18.4804 19.2929 18.2929C19.4804 18.1054 19.7348 18 20 18C20.2652 18 20.5196 18.1054 20.7071 18.2929C20.8946 18.4804 21 18.7348 21 19ZM29 28C28.7348 28 28.4804 28.1054 28.2929 28.2929C28.1054 28.4804 28 28.7348 28 29V31C28 31.2652 28.1054 31.5196 28.2929 31.7071C28.4804 31.8946 28.7348 32 29 32C29.2652 32 29.5196 31.8946 29.7071 31.7071C29.8946 31.5196 30 31.2652 30 31V29C30 28.7348 29.8946 28.4804 29.7071 28.2929C29.5196 28.1054 29.2652 28 29 28ZM32 22H30V9C30 8.73478 29.8946 8.48043 29.7071 8.29289C29.5196 8.10536 29.2652 8 29 8C28.7348 8 28.4804 8.10536 28.2929 8.29289C28.1054 8.48043 28 8.73478 28 9V22H26C25.7348 22 25.4804 22.1054 25.2929 22.2929C25.1054 22.4804 25 22.7348 25 23V25C25 25.2652 25.1054 25.5196 25.2929 25.7071C25.4804 25.8946 25.7348 26 26 26H32C32.2652 26 32.5196 25.8946 32.7071 25.7071C32.8946 25.5196 33 25.2652 33 25V23C33 22.7348 32.8946 22.4804 32.7071 22.2929C32.5196 22.1054 32.2652 22 32 22ZM11 24C10.7348 24 10.4804 24.1054 10.2929 24.2929C10.1054 24.4804 10 24.7348 10 25V31C10 31.2652 10.1054 31.5196 10.2929 31.7071C10.4804 31.8946 10.7348 32 11 32C11.2652 32 11.5196 31.8946 11.7071 31.7071C11.8946 31.5196 12 31.2652 12 31V25C12 24.7348 11.8946 24.4804 11.7071 24.2929C11.5196 24.1054 11.2652 24 11 24ZM14 18H12V9C12 8.73478 11.8946 8.48043 11.7071 8.29289C11.5196 8.10536 11.2652 8 11 8C10.7348 8 10.4804 8.10536 10.2929 8.29289C10.1054 8.48043 10 8.73478 10 9V18H8C7.73478 18 7.48043 18.1054 7.29289 18.2929C7.10536 18.4804 7 18.7348 7 19V21C7 21.2652 7.10536 21.5196 7.29289 21.7071C7.48043 21.8946 7.73478 22 8 22H14C14.2652 22 14.5196 21.8946 14.7071 21.7071C14.8946 21.5196 15 21.2652 15 21V19C15 18.7348 14.8946 18.4804 14.7071 18.2929C14.5196 18.1054 14.2652 18 14 18ZM23 12H21V9C21 8.73478 20.8946 8.48043 20.7071 8.29289C20.5196 8.10536 20.2652 8 20 8C19.7348 8 19.4804 8.10536 19.2929 8.29289C19.1054 8.48043 19 8.73478 19 9V12H17C16.7348 12 16.4804 12.1054 16.2929 12.2929C16.1054 12.4804 16 12.7348 16 13V15C16 15.2652 16.1054 15.5196 16.2929 15.7071C16.4804 15.8946 16.7348 16 17 16H23C23.2652 16 23.5196 15.8946 23.7071 15.7071C23.8946 15.5196 24 15.2652 24 15V13C24 12.7348 23.8946 12.4804 23.7071 12.2929C23.5196 12.1054 23.2652 12 23 12Z" fill="white"/>
</g>
<defs>
<clipPath id="clip0_266_9241">
<rect width="32" height="32" fill="white" transform="translate(4 4)"/>
</clipPath>
</defs>
</svg>
