<svg width="40" height="40" viewBox="0 0 40 40" fill="none" xmlns="http://www.w3.org/2000/svg">
<rect width="40" height="40" rx="4" fill="#F9B208"/>
<g clip-path="url(#clip0_266_9250)">
<path d="M30 9H27V8C27 7.73478 26.8946 7.48043 26.7071 7.29289C26.5196 7.10536 26.2652 7 26 7C25.7348 7 25.4804 7.10536 25.2929 7.29289C25.1054 7.48043 25 7.73478 25 8V9H15V8C15 7.73478 14.8946 7.48043 14.7071 7.29289C14.5196 7.10536 14.2652 7 14 7C13.7348 7 13.4804 7.10536 13.2929 7.29289C13.1054 7.48043 13 7.73478 13 8V9H10C9.46957 9 8.96086 9.21071 8.58579 9.58579C8.21071 9.96086 8 10.4696 8 11V31C8 31.5304 8.21071 32.0391 8.58579 32.4142C8.96086 32.7893 9.46957 33 10 33H30C30.5304 33 31.0391 32.7893 31.4142 32.4142C31.7893 32.0391 32 31.5304 32 31V11C32 10.4696 31.7893 9.96086 31.4142 9.58579C31.0391 9.21071 30.5304 9 30 9ZM25.2075 21.7075L19.2075 27.7075C19.1146 27.8005 19.0043 27.8742 18.8829 27.9246C18.7615 27.9749 18.6314 28.0008 18.5 28.0008C18.3686 28.0008 18.2385 27.9749 18.1171 27.9246C17.9957 27.8742 17.8854 27.8005 17.7925 27.7075L14.7925 24.7075C14.6049 24.5199 14.4994 24.2654 14.4994 24C14.4994 23.7346 14.6049 23.4801 14.7925 23.2925C14.9801 23.1049 15.2346 22.9994 15.5 22.9994C15.7654 22.9994 16.0199 23.1049 16.2075 23.2925L18.5 25.5863L23.7925 20.2925C23.8854 20.1996 23.9957 20.1259 24.1171 20.0756C24.2385 20.0253 24.3686 19.9994 24.5 19.9994C24.6314 19.9994 24.7615 20.0253 24.8829 20.0756C25.0043 20.1259 25.1146 20.1996 25.2075 20.2925C25.3004 20.3854 25.3741 20.4957 25.4244 20.6171C25.4747 20.7385 25.5006 20.8686 25.5006 21C25.5006 21.1314 25.4747 21.2615 25.4244 21.3829C25.3741 21.5043 25.3004 21.6146 25.2075 21.7075ZM10 15V11H13V12C13 12.2652 13.1054 12.5196 13.2929 12.7071C13.4804 12.8946 13.7348 13 14 13C14.2652 13 14.5196 12.8946 14.7071 12.7071C14.8946 12.5196 15 12.2652 15 12V11H25V12C25 12.2652 25.1054 12.5196 25.2929 12.7071C25.4804 12.8946 25.7348 13 26 13C26.2652 13 26.5196 12.8946 26.7071 12.7071C26.8946 12.5196 27 12.2652 27 12V11H30V15H10Z" fill="white"/>
</g>
<defs>
<clipPath id="clip0_266_9250">
<rect width="32" height="32" fill="white" transform="translate(4 4)"/>
</clipPath>
</defs>
</svg>
