<svg width="168" height="168" viewBox="0 0 168 168" fill="none" xmlns="http://www.w3.org/2000/svg">
<path d="M44.8157 143.625L26.2214 74.2327L101.388 32.5049L118.28 95.5486L61.0523 110.882L44.8157 143.625ZM34.3403 77.6756L46.7656 124.048L56.2218 104.981L109.768 90.634L96.9786 42.903L34.3403 77.6756Z" fill="white"/>
<path d="M51.0194 91.1676C53.8023 91.1676 56.0583 88.9116 56.0583 86.1287C56.0583 83.3458 53.8023 81.0898 51.0194 81.0898C48.2365 81.0898 45.9805 83.3458 45.9805 86.1287C45.9805 88.9116 48.2365 91.1676 51.0194 91.1676Z" fill="white"/>
<path d="M91.2274 80.3033C94.0103 80.3033 96.2663 78.0474 96.2663 75.2645C96.2663 72.4816 94.0103 70.2256 91.2274 70.2256C88.4445 70.2256 86.1885 72.4816 86.1885 75.2645C86.1885 78.0474 88.4445 80.3033 91.2274 80.3033Z" fill="white"/>
<path d="M71.1234 90.9417C76.782 90.9417 81.3691 86.3545 81.3691 80.696C81.3691 75.0374 76.782 70.4502 71.1234 70.4502C65.4648 70.4502 60.8776 75.0374 60.8776 80.696C60.8776 86.3545 65.4648 90.9417 71.1234 90.9417Z" fill="white"/>
<path d="M130.908 35.2637L132.761 42.183L113.97 52.6147L112.116 45.6954L130.908 35.2637Z" fill="white"/>
<path d="M141.186 73.332L143.054 80.304L121.412 80.668L119.544 73.696L141.186 73.332Z" fill="white"/>
<path d="M136.036 54.4192L115.896 59.8154L117.695 66.5291L137.835 61.1329L136.036 54.4192Z" fill="white"/>
<path d="M24.9458 59.4011L25.7219 58.9722L28.6183 60.8L28.5813 57.3918L29.3575 56.9629L31.7991 61.3824L30.9467 61.8528L29.4023 59.0562L29.4011 61.248C29.4011 61.397 29.381 61.5134 29.3429 61.5974C29.3048 61.6826 29.2432 61.7475 29.1592 61.7934L28.9195 61.9267L26.693 60.5525L28.2386 63.3491L27.3863 63.8195L24.9458 59.4011Z" fill="white"/>
<path d="M34.9183 58.367L33.2338 59.2977L33.4141 60.5655L32.4879 61.0774L31.7632 55.6039L32.1619 55.3833C32.4408 55.2287 32.6995 55.2534 32.9403 55.4561L36.8144 58.6862L35.8882 59.1969L34.9183 58.367ZM33.0602 58.4196L34.2687 57.7521L32.7757 56.463L32.769 56.4663L33.0602 58.4196Z" fill="white"/>
<path d="M34.9138 53.8632L37.305 52.5415C37.6947 52.3265 38.0666 52.2571 38.4205 52.3366C38.7744 52.415 39.0466 52.6255 39.2358 52.9683L39.4845 53.4185C39.6077 53.6414 39.6514 53.871 39.6166 54.1051C39.5808 54.3403 39.4677 54.5665 39.275 54.7849L39.2818 54.7972C39.4688 54.8118 39.629 54.8566 39.7645 54.9339C39.8989 55.01 40.0579 55.1332 40.2394 55.3012L41.2317 56.2465L40.3122 56.7539L39.3814 55.8747C39.2235 55.7212 39.0712 55.626 38.9222 55.5913C38.7744 55.5555 38.6266 55.5779 38.481 55.6585L37.3946 56.2588L38.2861 57.8727L37.399 58.3633L34.9138 53.8632ZM38.3107 54.7558C38.491 54.6561 38.6053 54.5295 38.6557 54.3761C38.705 54.2227 38.687 54.0692 38.6019 53.9147L38.3712 53.4969C38.3029 53.3726 38.2088 53.2942 38.0901 53.2617C37.9714 53.2292 37.8482 53.2483 37.7194 53.32L36.2275 54.1443L36.9734 55.4939L38.3107 54.7558Z" fill="white"/>
<path d="M44.7227 54.3186L42.1938 53.249L42.019 53.949L42.8075 55.3759L41.9205 55.8664L39.4341 51.3663L40.3211 50.8757L41.393 52.8167L42.1075 49.8879L43.2006 49.2842L42.439 52.2802L45.8024 53.7205L44.7227 54.3186Z" fill="white"/>
<path d="M46.4173 53.1634C46.2403 53.1164 46.1014 53.0021 46.0018 52.8218L43.8491 48.9264L47.2819 47.0303L47.7075 47.802L45.1618 49.2087L45.7374 50.2503L48.0906 48.95L48.5162 49.7216L46.163 51.022L46.7958 52.1666L49.3416 50.7599L49.7683 51.5316L46.9582 53.0839C46.7757 53.1836 46.5942 53.2116 46.4173 53.1634Z" fill="white"/>
<path d="M49.5802 46.7684L48.1533 47.5568L47.7277 46.7852L51.4696 44.7188L51.8963 45.4904L50.4683 46.2789L52.528 50.0074L51.641 50.4968L49.5802 46.7684Z" fill="white"/>
<path d="M52.1696 44.3314L53.0567 43.8408L55.5419 48.341L54.6549 48.8315L52.1696 44.3314Z" fill="white"/>
<path d="M54.0781 43.2761L54.8688 42.8393L58.7194 44.7052L57.0293 41.6454L57.8973 41.166L60.3826 45.6662L59.5919 46.103L55.7413 44.2359L57.4325 47.2958L56.5645 47.7751L54.0781 43.2761Z" fill="white"/>
<path d="M61.9203 44.6074C61.5888 44.6051 61.2819 44.5144 60.9997 44.3307C60.7175 44.1482 60.4823 43.8883 60.2952 43.549L59.6411 42.3662C59.4541 42.028 59.3589 41.6898 59.3544 41.3538C59.3511 41.0178 59.4373 40.7086 59.6143 40.4264C59.7912 40.1442 60.0466 39.9112 60.3815 39.7253L61.1016 39.3277C61.4231 39.1496 61.7411 39.0578 62.057 39.0522C62.3728 39.0454 62.6629 39.1227 62.9272 39.284C63.1927 39.4453 63.4099 39.6805 63.5813 39.9885L62.7066 40.4712C62.5789 40.2394 62.4075 40.0915 62.1925 40.0254C61.9775 39.9594 61.7579 39.9885 61.5351 40.1117L60.816 40.5104C60.5763 40.6426 60.433 40.8386 60.3848 41.0973C60.3378 41.356 60.3927 41.6282 60.5517 41.916L61.1621 43.0214C61.3211 43.3093 61.5205 43.5008 61.7624 43.6005C62.0043 43.699 62.2429 43.6834 62.4792 43.5534L63.2375 43.1346C63.4559 43.0136 63.5936 42.8344 63.6496 42.597C63.7056 42.3595 63.6687 42.1221 63.5387 41.8869L63.4603 41.7458L62.2138 42.4346L61.7871 41.6629L63.9083 40.4914L64.4123 41.4042C64.5848 41.7166 64.6711 42.0336 64.6677 42.3539C64.6655 42.6742 64.5781 42.971 64.4056 43.2454C64.2331 43.5198 63.9879 43.745 63.6709 43.9197L62.9127 44.3386C62.5823 44.5189 62.2519 44.6096 61.9203 44.6074Z" fill="white"/>
<path d="M67.1373 37.0693L65.7104 37.8578L65.2848 37.0861L69.0267 35.0186L69.4523 35.7902L68.0255 36.5787L70.0851 40.3072L69.1981 40.7978L67.1373 37.0693Z" fill="white"/>
<path d="M69.6618 34.6678L72.053 33.3462C72.4427 33.1312 72.8146 33.0618 73.1685 33.1413C73.5224 33.2197 73.7946 33.4302 73.9839 33.773L74.2325 34.2232C74.3557 34.4461 74.3994 34.6746 74.3647 34.9098C74.3299 35.145 74.2157 35.3712 74.0231 35.5896L74.0298 35.6019C74.2168 35.6165 74.377 35.6613 74.5114 35.7386C74.6458 35.8147 74.8048 35.9379 74.9874 36.1059L75.9797 37.0512L75.0602 37.5586L74.1295 36.6794C73.9715 36.5259 73.8192 36.4318 73.6714 36.396C73.5224 36.3602 73.3757 36.3826 73.2301 36.4632L72.1437 37.0635L73.0352 38.6774L72.1482 39.1669L69.6618 34.6678ZM73.0587 35.5605C73.2391 35.4608 73.3533 35.3342 73.4026 35.1819C73.4519 35.0285 73.4339 34.875 73.3488 34.7205L73.1181 34.3027C73.0498 34.1784 72.9557 34.1 72.837 34.0675C72.7183 34.035 72.5951 34.0541 72.4663 34.1258L70.9744 34.9501L71.7203 36.2997L73.0587 35.5605Z" fill="white"/>
<path d="M76.7491 36.4085C76.5722 36.3615 76.4333 36.2472 76.3336 36.0669L74.181 32.1715L77.6138 30.2754L78.0394 31.0471L75.4936 32.4538L76.0693 33.4954L78.4224 32.1951L78.848 32.9668L76.496 34.266L77.1288 35.4106L79.6746 34.0039L80.1002 34.7755L77.2912 36.3279C77.1064 36.4287 76.9261 36.4556 76.7491 36.4085Z" fill="white"/>
<path d="M80.9189 33.8736C80.5078 33.7572 80.1718 33.4626 79.9109 32.9911L80.7856 32.5084C80.9088 32.7312 81.0622 32.8746 81.2459 32.9384C81.4296 33.0023 81.6223 32.9788 81.8227 32.8668L82.5362 32.4725C82.7243 32.3684 82.8565 32.244 82.9304 32.0996C83.0043 31.9551 83.0043 31.8162 82.9315 31.684L82.8106 31.4656C82.6941 31.2562 82.4679 31.2103 82.1307 31.329L80.8383 31.7837C80.4171 31.9327 80.0565 31.9708 79.7563 31.8991C79.4562 31.8274 79.2288 31.6493 79.072 31.3671L78.8738 31.0076C78.7483 30.7802 78.6991 30.5461 78.7248 30.3053C78.7506 30.0645 78.8503 29.8349 79.0239 29.6154C79.1963 29.397 79.4315 29.2055 79.7272 29.042L80.4541 28.641C80.733 28.4876 81.0107 28.4092 81.2896 28.4058C81.5685 28.4024 81.8227 28.473 82.0557 28.6164C82.2887 28.7597 82.4802 28.968 82.6314 29.2413L81.7566 29.724C81.657 29.5437 81.5282 29.4272 81.3691 29.3724C81.2101 29.3175 81.0488 29.3354 80.8864 29.425L80.1606 29.826C79.9803 29.9256 79.8571 30.0444 79.791 30.181C79.7238 30.3188 79.7261 30.452 79.7978 30.5808L79.8941 30.7544C80.0128 30.9695 80.2335 31.0199 80.5583 30.9079L81.8485 30.4644C82.2763 30.3176 82.6415 30.274 82.9427 30.3333C83.244 30.3938 83.4714 30.5607 83.6226 30.8351L83.8566 31.2596C83.9821 31.4869 84.0303 31.7232 84.0011 31.9685C83.972 32.2138 83.8701 32.4479 83.6965 32.6696C83.5229 32.8914 83.2855 33.0863 82.9853 33.252L82.2461 33.6608C81.7723 33.9184 81.331 33.9901 80.9189 33.8736ZM79.4584 27.1962L80.4227 26.6631L80.304 28.24L79.4685 28.7015L79.4584 27.1962Z" fill="white"/>
<path d="M85.8133 31.4089C85.484 31.4056 85.1794 31.3126 84.8994 31.1289C84.6183 30.9453 84.3853 30.6843 84.1983 30.3461L83.5442 29.1633C83.3571 28.8251 83.2619 28.4869 83.2574 28.1509C83.2541 27.8149 83.3403 27.5057 83.5173 27.2235C83.6942 26.9413 83.9496 26.7072 84.2845 26.5224L84.9666 26.1461C85.288 25.968 85.6083 25.8806 85.9286 25.8829C86.249 25.8851 86.5447 25.9725 86.8157 26.1438C87.0867 26.3152 87.313 26.5649 87.4922 26.8897L86.6174 27.3725C86.4752 27.1149 86.2926 26.9469 86.0686 26.8662C85.8446 26.7856 85.6218 26.8069 85.3989 26.9301L84.7168 27.3064C84.4771 27.4385 84.3338 27.6345 84.2856 27.8933C84.2386 28.152 84.2934 28.4241 84.4525 28.712L85.0629 29.8174C85.2219 30.1053 85.4213 30.2979 85.6599 30.3976C85.8995 30.4973 86.1347 30.4838 86.3666 30.355L87.061 29.972C87.2883 29.8465 87.425 29.6561 87.4709 29.4008C87.5179 29.1454 87.4608 28.8744 87.3029 28.5877L88.1776 28.1049C88.3691 28.4521 88.4688 28.7949 88.4778 29.1342C88.4856 29.4736 88.4061 29.7838 88.237 30.0649C88.0679 30.3461 87.8203 30.5768 87.4944 30.756L86.8 31.139C86.4718 31.3227 86.1426 31.4123 85.8133 31.4089Z" fill="white"/>
<path d="M87.4048 24.8656L88.2919 24.375L90.7783 28.8752L89.8912 29.3657L87.4048 24.8656Z" fill="white"/>
<path d="M27.8734 64.7218L31.2424 62.8604L31.668 63.632L29.1861 65.0029L29.8536 66.2114L32.097 64.9715L32.5237 65.7432L30.2803 66.9831L31.2469 68.7314L30.3598 69.2208L27.8734 64.7218Z" fill="white"/>
<path d="M34.8746 66.5123C34.5363 66.5123 34.2239 66.4216 33.936 66.2413C33.6493 66.061 33.4107 65.8 33.2215 65.4573L32.5819 64.3003C32.3927 63.9576 32.2986 63.6171 32.2986 63.2778C32.2986 62.9395 32.3893 62.6259 32.5696 62.3392C32.7499 62.0525 33.0087 61.815 33.3469 61.628L34.029 61.2517C34.3672 61.0646 34.7055 60.9706 35.0448 60.9717C35.3831 60.9717 35.6967 61.0624 35.9834 61.2427C36.2701 61.423 36.5075 61.684 36.6979 62.0267L37.3375 63.1837C37.5267 63.5264 37.6219 63.868 37.6208 64.2062C37.6208 64.5445 37.5301 64.8581 37.3498 65.1448C37.1695 65.4315 36.9107 65.669 36.5725 65.856L35.8904 66.2323C35.5522 66.4194 35.2139 66.5134 34.8746 66.5123ZM36.1391 65.072C36.3877 64.9342 36.5378 64.7338 36.5904 64.4694C36.6431 64.2051 36.5893 63.9274 36.428 63.6362L35.8311 62.5565C35.6698 62.2653 35.4637 62.0715 35.2117 61.9752C34.9597 61.8789 34.7099 61.9002 34.4613 62.0379L33.7792 62.4142C33.5306 62.552 33.3805 62.7525 33.3279 63.0168C33.2752 63.2811 33.329 63.5589 33.4903 63.8501L34.0872 64.9309C34.2485 65.2221 34.4546 65.4158 34.7066 65.5122C34.9586 65.6085 35.2083 65.5872 35.457 65.4506L36.1391 65.072Z" fill="white"/>
<path d="M37.9299 60.1726L36.5031 60.9611L36.0775 60.1894L39.8194 58.123L40.245 58.8947L38.8181 59.6832L40.8778 63.4117L39.9907 63.9022L37.9299 60.1726Z" fill="white"/>
<path d="M43.335 61.8395C42.9968 61.8395 42.6843 61.7487 42.3965 61.5684C42.1098 61.3881 41.8723 61.1271 41.6819 60.7844L41.0424 59.6275C40.8531 59.2847 40.7579 58.9443 40.759 58.6049C40.759 58.2667 40.8498 57.9531 41.0301 57.6663C41.2104 57.3796 41.4691 57.1422 41.8074 56.9551L42.4894 56.5788C42.8277 56.3918 43.167 56.2988 43.5053 56.2988C43.8435 56.2988 44.1571 56.3895 44.4438 56.5699C44.7306 56.7502 44.9691 57.0111 45.1584 57.3539L45.7979 58.5108C45.9872 58.8535 46.0824 59.1951 46.0813 59.5334C46.0813 59.8716 45.9906 60.1852 45.8102 60.4719C45.6299 60.7587 45.3712 60.9961 45.033 61.1831L44.3509 61.5595C44.0126 61.7465 43.6733 61.8406 43.335 61.8395ZM44.5995 60.3991C44.8482 60.2625 44.9982 60.0609 45.0509 59.7966C45.1035 59.5323 45.0498 59.2545 44.8885 58.9633L44.2915 57.8836C44.1302 57.5924 43.9242 57.3987 43.6722 57.3023C43.4202 57.206 43.1704 57.2273 42.9218 57.3639L42.2397 57.7403C41.991 57.878 41.8398 58.0785 41.7883 58.3428C41.7357 58.6071 41.7894 58.8849 41.9507 59.1761L42.5477 60.2558C42.709 60.547 42.915 60.7407 43.167 60.8371C43.419 60.9334 43.6688 60.9121 43.9174 60.7755L44.5995 60.3991Z" fill="white"/>
<path d="M48.1298 59.1943C47.7983 59.1932 47.4914 59.1013 47.2091 58.9176C46.9269 58.7351 46.6917 58.4752 46.5047 58.1359L45.8506 56.9532C45.6635 56.6149 45.5683 56.2767 45.5639 55.9407C45.5594 55.6047 45.6456 55.2955 45.8226 55.0133C45.9995 54.7311 46.2549 54.4981 46.5898 54.3122L47.3099 53.9146C47.6314 53.7376 47.9495 53.6447 48.2653 53.6391C48.58 53.6323 48.8712 53.7107 49.1355 53.8709C49.401 54.0322 49.6183 54.2674 49.7896 54.5754L48.9149 55.0581C48.7872 54.8263 48.6159 54.6784 48.4008 54.6123C48.1858 54.5474 47.9663 54.5754 47.7434 54.6986L47.0232 55.0962C46.7835 55.2283 46.6391 55.4243 46.592 55.6819C46.545 55.9407 46.5999 56.2128 46.7589 56.5007L47.3693 57.6061C47.5283 57.894 47.7277 58.0866 47.9696 58.1852C48.2115 58.2837 48.4501 58.268 48.6864 58.1381L49.4447 57.7192C49.6631 57.5983 49.8008 57.4191 49.8568 57.1816C49.9128 56.9442 49.8759 56.7067 49.7459 56.4715L49.6675 56.3304L48.421 57.0192L47.9943 56.2475L50.1155 55.0749L50.6195 55.9877C50.792 56.3002 50.8771 56.6171 50.8749 56.9375C50.8727 57.2578 50.7853 57.5546 50.6128 57.829C50.4392 58.1034 50.1951 58.3285 49.8781 58.5032L49.1199 58.9221C48.7917 59.1058 48.4602 59.1965 48.1298 59.1943Z" fill="white"/>
<path d="M49.8019 52.6073L52.1931 51.2857C52.5829 51.0706 52.9547 51.0012 53.3087 51.0807C53.6626 51.1591 53.9347 51.3697 54.124 51.7124L54.3727 52.1627C54.4959 52.3855 54.5395 52.614 54.5048 52.8492C54.469 53.0844 54.3559 53.3106 54.1632 53.529L54.1699 53.5414C54.357 53.5559 54.5171 53.6007 54.6515 53.678C54.7859 53.7542 54.945 53.8774 55.1264 54.0454L56.1187 54.9906L55.1992 55.498L54.2685 54.6188C54.1106 54.4654 53.9583 54.3713 53.8093 54.3354C53.6615 54.2996 53.5136 54.322 53.368 54.4026L52.2816 55.003L53.1731 56.6169L52.2861 57.1063L49.8019 52.6073ZM53.1978 53.4999C53.3781 53.4003 53.4923 53.2737 53.5427 53.1202C53.592 52.9668 53.5741 52.8134 53.489 52.6588L53.2583 52.241C53.1899 52.1167 53.0959 52.0383 52.9771 52.0058C52.8584 51.9734 52.7352 51.9924 52.6064 52.0641L51.1146 52.8884L51.8605 54.238L53.1978 53.4999Z" fill="white"/>
<path d="M58.865 52.1077L57.1805 53.0384L57.3608 54.3063L56.4357 54.8181L55.7111 49.3447L56.1098 49.124C56.3887 48.9706 56.6474 48.9941 56.8882 49.1968L60.7623 52.4269L59.836 52.9376L58.865 52.1077ZM57.0058 52.1603L58.2143 51.4928L56.7213 50.2037L56.7146 50.2071L57.0058 52.1603Z" fill="white"/>
<path d="M58.8605 47.6036L62.2295 45.7422L62.6562 46.5139L60.1743 47.8847L60.8418 49.0932L63.0851 47.8534L63.5107 48.6251L61.2674 49.8649L62.2328 51.6132L61.3458 52.1038L58.8605 47.6036Z" fill="white"/>
<path d="M62.9687 45.3333L63.8557 44.8428L66.3421 49.3429L65.4551 49.8335L62.9687 45.3333Z" fill="white"/>
<path d="M69.421 46.2757L67.7365 47.2064L67.9168 48.4742L66.9906 48.9861L66.2659 43.5126L66.6647 43.292C66.9435 43.1385 67.2023 43.1621 67.4431 43.3648L71.3171 46.5949L70.392 47.1056L69.421 46.2757ZM67.5618 46.3294L68.7703 45.6619L67.2773 44.3728L67.2706 44.3761L67.5618 46.3294Z" fill="white"/>
<path d="M72.2949 130.001L68.6314 119.609H66.3634V136.508H69.0032V126.696L72.632 136.508H74.9235V119.609H72.2949V130.001Z" fill="white"/>
<path d="M79.6454 119.609H76.7614V136.519H79.6454V119.609Z" fill="white"/>
<path d="M82.7624 119.609H81.4823V136.52H82.7624H84.3674H88.9952V133.706H84.3674V129.518H88.4139V126.716H84.3674V122.424H88.9952V119.609H84.3674H82.7624Z" fill="white"/>
<path d="M96.927 120.057C96.3536 119.759 95.6637 119.609 94.8573 119.609H93.3688H92.4034H90.4848V136.519H92.4034H93.3688H94.8461C95.6525 136.519 96.3446 136.37 96.9226 136.071C97.5005 135.773 97.9406 135.339 98.243 134.769C98.5454 134.199 98.6966 133.519 98.6966 132.728V123.401C98.6966 122.61 98.5454 121.929 98.243 121.36C97.9395 120.79 97.5016 120.356 96.927 120.057ZM95.7757 132.403C95.7757 132.83 95.6715 133.161 95.4621 133.398C95.2526 133.634 94.9536 133.753 94.5661 133.753H93.3677V122.379H94.5661C94.9536 122.379 95.2526 122.498 95.4621 122.734C95.6715 122.97 95.7757 123.302 95.7757 123.729V132.403Z" fill="white"/>
<path d="M103.289 119.609L99.2533 136.519H102.114L102.632 133.89H105.968L106.486 136.519H109.347L105.311 119.609H103.289ZM103.165 131.194L104.301 125.437L105.437 131.194H103.165Z" fill="white"/>
<path d="M117.105 128.902C117.756 128.592 118.252 128.141 118.593 127.547C118.935 126.954 119.105 126.242 119.105 125.414V123.437C119.105 122.63 118.935 121.938 118.593 121.36C118.252 120.782 117.758 120.345 117.111 120.047C116.463 119.749 115.681 119.599 114.768 119.599H113.43H111.895H110.603V136.521H113.429V129.368H114.397L116.488 136.521H119.581L117.081 128.913C117.09 128.909 117.098 128.906 117.105 128.902ZM113.43 122.366H114.942C115.19 122.366 115.406 122.414 115.587 122.512C115.77 122.609 115.908 122.75 116.001 122.936C116.094 123.122 116.141 123.343 116.141 123.599V125.483C116.141 125.716 116.094 125.915 116.001 126.082C115.908 126.249 115.77 126.377 115.587 126.466C115.405 126.556 115.19 126.6 114.942 126.6H113.43V122.366Z" fill="white"/>
<path d="M124.013 119.609H121.129V136.519H124.013V119.609Z" fill="white"/>
<path d="M132.038 136.521H134.898L130.863 119.611H128.839L124.804 136.521H127.664L128.183 133.892H131.518L132.038 136.521ZM128.716 131.194L129.852 125.438L130.987 131.194H128.716Z" fill="white"/>
</svg>
