<svg width="215" height="40" viewBox="0 0 215 40" fill="none" xmlns="http://www.w3.org/2000/svg">
<path d="M130.7 39.9983L110.562 0H104.43L84.1016 39.9373H101.465C99.1098 37.3133 97.9445 32.1019 97.9445 32.1019L107.372 30.6563L116.8 32.1019C116.8 32.1019 115.601 37.2888 113.28 39.9373L130.7 39.9983ZM104.95 27.0446L100.607 27.7667L104.95 17.6522V27.0446ZM107.371 27.0706V8.62766L119.428 28.4887L107.371 27.0706Z" fill="white"/>
<path d="M36.5613 32.1204C34.5519 32.1204 32.7076 31.7952 31.0285 31.148C29.3493 30.5008 27.8858 29.5773 26.6364 28.3775C25.387 27.1792 24.419 25.7855 23.7323 24.1949C23.0457 22.6058 22.7031 20.8443 22.7031 18.9118C22.7031 16.9792 23.0457 15.2192 23.7323 13.6286C24.4174 12.0395 25.3916 10.6443 26.6548 9.44605C27.9164 8.24777 29.3875 7.32425 31.0652 6.67549C32.7428 6.02826 34.6115 5.70312 36.6714 5.70312C38.8277 5.70312 40.7821 6.05727 42.5347 6.76708C44.2857 7.47689 45.7629 8.51643 46.9634 9.88568L43.9492 12.8211C42.9445 11.8182 41.8603 11.0779 40.6965 10.6016C39.5327 10.1253 38.2527 9.88568 36.855 9.88568C35.4817 9.88568 34.2262 10.1055 33.0868 10.5466C31.9475 10.9863 30.9612 11.6106 30.1277 12.4181C29.2943 13.2256 28.6443 14.1797 28.1794 15.2803C27.713 16.3809 27.4806 17.5914 27.4806 18.9118C27.4806 20.2093 27.713 21.4137 28.1794 22.5265C28.6443 23.6393 29.2943 24.5994 30.1277 25.4069C30.9612 26.2144 31.9414 26.8372 33.0685 27.2784C34.1956 27.718 35.445 27.9394 36.8183 27.9394C38.0921 27.9394 39.3232 27.7379 40.513 27.3333C41.7012 26.9304 42.8344 26.2511 43.9125 25.297L46.5964 28.8552C45.2736 29.9329 43.729 30.745 41.9642 31.2961C40.201 31.8456 38.3995 32.1204 36.5613 32.1204ZM42.111 28.2309V18.6538H46.5964V28.8537L42.111 28.2309Z" fill="white"/>
<path d="M142.07 31.7539V6.06934H145.776L160.977 25.883H159.142V6.06934H163.573V31.7539H159.868L144.701 11.9402H146.536V31.7539H142.07Z" fill="white"/>
<path d="M69.6596 36.8005L69.626 36.8631L0 38.3835L69.626 40H90.161C89.3765 39.1254 88.7235 37.9622 88.202 36.8005H69.6596Z" fill="white"/>
<path d="M145.372 36.8631L145.339 36.8005H126.777C126.255 37.9576 125.608 39.1193 124.836 40H145.363L214.998 38.3835L145.372 36.8631Z" fill="white"/>
<path d="M66.3438 6.06934H71.5953V31.7539H66.3438V6.06934Z" fill="white"/>
<path d="M199.497 5.98389H178.43V10.5816H186.564V31.8394H191.817V10.5816H199.497V5.98389Z" fill="white"/>
</svg>
