<svg width="258" height="48" viewBox="0 0 258 48" fill="none" xmlns="http://www.w3.org/2000/svg">
<path d="M156.839 47.9975L132.675 0H125.316L100.922 47.9243H121.758C118.932 44.7755 117.533 38.5219 117.533 38.5219L128.847 36.7872L140.16 38.5219C140.16 38.5219 138.721 44.7462 135.936 47.9243L156.839 47.9975ZM125.94 32.4532L120.728 33.3197L125.94 21.1824V32.4532ZM128.845 32.4844V10.3531L143.313 34.1861L128.845 32.4844Z" fill="#0D0E16"/>
<path d="M43.8719 38.5441C41.4606 38.5441 39.2474 38.154 37.2325 37.3773C35.2175 36.6006 33.4613 35.4924 31.9621 34.0527C30.4628 32.6147 29.3012 30.9424 28.4772 29.0337C27.6532 27.1268 27.2422 25.013 27.2422 22.694C27.2422 20.3749 27.6532 18.2629 28.4772 16.3542C29.2993 14.4474 30.4683 12.7731 31.9841 11.3352C33.4981 9.89729 35.2634 8.78908 37.2765 8.01058C39.2896 7.23391 41.5321 6.84375 44.004 6.84375C46.5915 6.84375 48.9368 7.26872 51.0398 8.12049C53.141 8.97225 54.9137 10.2197 56.3542 11.8628L52.7373 15.3852C51.5316 14.1818 50.2305 13.2934 48.834 12.7219C47.4375 12.1504 45.9015 11.8628 44.2242 11.8628C42.5763 11.8628 41.0697 12.1265 39.7025 12.6559C38.3354 13.1835 37.1517 13.9327 36.1516 14.9017C35.1515 15.8707 34.3716 17.0155 33.8137 18.3362C33.254 19.6569 32.975 21.1095 32.975 22.694C32.975 24.2509 33.254 25.6962 33.8137 27.0316C34.3716 28.3669 35.1515 29.5191 36.1516 30.4881C37.1517 31.4571 38.328 32.2044 39.6805 32.7338C41.033 33.2614 42.5323 33.527 44.1802 33.527C45.7088 33.527 47.1861 33.2852 48.6138 32.7998C50.0397 32.3162 51.3995 31.501 52.6932 30.3562L55.9138 34.626C54.3265 35.9192 52.473 36.8937 50.3553 37.555C48.2394 38.2144 46.0777 38.5441 43.8719 38.5441ZM50.5315 33.8768V22.3844H55.9138V34.6242L50.5315 33.8768Z" fill="#0D0E16"/>
<path d="M170.484 38.1043V7.2832H174.931L193.172 31.0594H190.97V7.2832H196.288V38.1043H191.841L173.641 14.3281H175.843V38.1043H170.484Z" fill="#0D0E16"/>
<path d="M83.5907 44.1602L83.5504 44.2353L0 46.0597L83.5504 47.9995H108.192C107.251 46.9499 106.467 45.5541 105.841 44.1602H83.5907Z" fill="#0D0E16"/>
<path d="M174.448 44.2353L174.408 44.1602H152.133C151.508 45.5486 150.731 46.9426 149.805 47.9995H174.437L257.999 46.0597L174.448 44.2353Z" fill="#0D0E16"/>
<path d="M79.6094 7.2832H85.9111V38.1043H79.6094V7.2832Z" fill="#0D0E16"/>
<path d="M239.398 7.18066H214.117V12.6979H223.878V38.207H230.182V12.6979H239.398V7.18066Z" fill="#0D0E16"/>
</svg>
