<svg width="138" height="24" viewBox="0 0 138 24" fill="none" xmlns="http://www.w3.org/2000/svg">
<g clip-path="url(#clip0_724_1061)">
<path fill-rule="evenodd" clip-rule="evenodd" d="M10.4641 5.95144L15.7337 8.99472V15.005L10.4641 18.0484L5.19444 15.005V8.99472L0 12.0052V17.9566L10.4641 24L20.9281 17.9566V12.0052V11.9948V8.99472V6.04324L10.4641 0V5.95144Z" fill="white"/>
<path fill-rule="evenodd" clip-rule="evenodd" d="M4.81836 0H6.61776C6.8862 0 7.10564 0.219508 7.10564 0.488028V2.28096C7.10564 2.54947 6.8862 2.76898 6.61776 2.76898H4.81836C4.55376 2.76898 4.33752 2.55265 4.33752 2.288V0.480984C4.33752 0.216333 4.55376 0 4.81836 0Z" fill="white"/>
<path fill-rule="evenodd" clip-rule="evenodd" d="M7.71642 5.41406H8.76006C8.91574 5.41406 9.04302 5.54134 9.04302 5.69706V6.73702C9.04302 6.89278 8.91574 7.02006 8.76006 7.02006H7.71642C7.56294 7.02006 7.4375 6.89458 7.4375 6.74106V5.69306C7.4375 5.53954 7.56294 5.41406 7.71642 5.41406Z" fill="white"/>
<path fill-rule="evenodd" clip-rule="evenodd" d="M2.45911 6.30273H3.89612C4.11057 6.30273 4.28585 6.47805 4.28585 6.69257V8.12437C4.28585 8.33889 4.11057 8.51421 3.89612 8.51421H2.45911C2.24781 8.51421 2.07501 8.34137 2.07501 8.13001V6.68693C2.07501 6.47557 2.24781 6.30273 2.45911 6.30273Z" fill="white"/>
<path fill-rule="evenodd" clip-rule="evenodd" d="M4.77427 4.35254H5.27443C5.34911 4.35254 5.40998 4.41342 5.40998 4.48814V4.98638C5.40998 5.06106 5.34911 5.12194 5.27443 5.12194H4.77427C4.70067 5.12194 4.64062 5.0619 4.64062 4.9883V4.48618C4.64062 4.41262 4.70067 4.35254 4.77427 4.35254Z" fill="white"/>
<path fill-rule="evenodd" clip-rule="evenodd" d="M0.384094 2.2832H1.8211C2.03558 2.2832 2.21086 2.45854 2.21086 2.67321V4.10497C2.21086 4.31937 2.03558 4.49485 1.8211 4.49485H0.384094C0.172794 4.49485 0 4.32189 0 4.11065V2.66755C0 2.45605 0.172794 2.2832 0.384094 2.2832Z" fill="white"/>
<path d="M30.1008 6.2926C31.521 6.2926 32.6988 6.64228 33.6346 7.34152C34.5702 8.04064 35.1703 8.98508 35.4346 10.1744H32.9906C32.7593 9.64568 32.3933 9.2246 31.8924 8.91068C31.3916 8.59688 30.8 8.43992 30.1174 8.43992C29.4458 8.43992 28.8513 8.59412 28.3338 8.90252C27.8164 9.2108 27.4147 9.6512 27.1284 10.224C26.8422 10.7966 26.6989 11.4683 26.6989 12.239C26.6989 13.4614 27.0266 14.414 27.6814 15.0968C28.3365 15.7795 29.2311 16.1209 30.3649 16.1209C31.2015 16.1209 31.9199 15.8731 32.5197 15.3776C33.1198 14.882 33.5078 14.1938 33.6838 13.3128H29.7373V11.6444H35.6325V13.891C35.4673 14.6618 35.1453 15.3721 34.6664 16.0218C34.1875 16.6716 33.56 17.1918 32.7838 17.5828C32.0078 17.9738 31.1188 18.1692 30.1171 18.1692C28.9722 18.1692 27.9622 17.9187 27.0869 17.4176C26.2116 16.9166 25.5345 16.2174 25.0557 15.3199C24.5768 14.4226 24.3375 13.3956 24.3375 12.2392C24.3375 11.083 24.577 10.0561 25.0557 9.15848C25.5346 8.26112 26.2088 7.55896 27.0786 7.05244C27.9482 6.54592 28.9559 6.2926 30.1008 6.2926ZM43.46 18.0701L40.7352 13.5275H39.7115V18.0701H37.383V6.40828H41.8252C43.1792 6.40828 44.2116 6.73864 44.9216 7.39924C45.6316 8.05996 45.9868 8.93 45.9868 10.0092C45.9868 10.8901 45.7416 11.628 45.252 12.2226C44.762 12.8172 44.0548 13.2136 43.13 13.4118L46.0364 18.07H43.4604L43.46 18.0701ZM39.7115 11.9254H41.6272C42.9592 11.9254 43.6252 11.3362 43.6252 10.1579C43.6252 9.59612 43.4628 9.15848 43.138 8.84468C42.8132 8.53076 42.3096 8.37376 41.6272 8.37376H39.7114L39.7115 11.9254ZM49.8836 8.25836V11.2812H54.012V13.0652H49.8836V16.2037H54.5072V18.0704H47.5552V6.40856H54.5072V8.25864L49.8836 8.25836ZM61.6248 6.29272C63.0448 6.29272 64.2228 6.6424 65.1588 7.34168C66.0944 8.0408 66.6944 8.98524 66.9588 10.1746H64.5148C64.2832 9.6458 63.9172 9.22476 63.4164 8.9108C62.9156 8.597 62.324 8.44004 61.6412 8.44004C60.9696 8.44004 60.3752 8.59424 59.8576 8.90268C59.3404 9.21096 58.9384 9.65132 58.6524 10.2241C58.366 10.7968 58.2228 11.4684 58.2228 12.2392C58.2228 13.4615 58.5504 14.4141 59.2052 15.097C59.8604 15.7796 60.7548 16.121 61.8888 16.121C62.7256 16.121 63.444 15.8732 64.0436 15.3778C64.644 14.8821 65.0316 14.1939 65.208 13.313H61.2612V11.6446H67.1564V13.8912C66.9912 14.6619 66.6692 15.3722 66.1904 16.0219C65.7116 16.6718 65.084 17.1919 64.308 17.5829C63.532 17.9739 62.6428 18.1694 61.6412 18.1694C60.496 18.1694 59.486 17.9188 58.6108 17.4178C57.7356 16.9168 57.0584 16.2175 56.5796 15.32C56.1008 14.4227 55.8616 13.3957 55.8616 12.2393C55.8616 11.0831 56.1008 10.0562 56.5796 9.1586C57.0584 8.26124 57.7328 7.55912 58.6024 7.05256C59.472 6.54604 60.4796 6.29284 61.6244 6.29284L61.6248 6.29272ZM74.3728 6.24316C75.4628 6.24316 76.4508 6.49648 77.3372 7.00288C78.2232 7.50956 78.9224 8.21708 79.434 9.12548C79.946 10.0339 80.202 11.0609 80.202 12.2062C80.202 13.3515 79.946 14.381 79.434 15.2952C78.922 16.2091 78.2232 16.9196 77.3372 17.426C76.4508 17.9326 75.4628 18.1858 74.3728 18.1858C73.2832 18.1858 72.2952 17.9325 71.4088 17.426C70.5224 16.9194 69.8236 16.2091 69.3116 15.2952C68.7996 14.3811 68.544 13.3515 68.544 12.2062C68.544 11.0609 68.8 10.034 69.3116 9.12548C69.8236 8.21708 70.5224 7.5094 71.4088 7.00288C72.2948 6.49636 73.2832 6.24316 74.3728 6.24316ZM74.3728 8.39048C73.6904 8.39048 73.0904 8.54468 72.5728 8.85312C72.0556 9.16136 71.6508 9.60452 71.3592 10.1827C71.0676 10.761 70.9216 11.4354 70.9216 12.2062C70.9216 12.977 71.0676 13.6515 71.3592 14.2297C71.6508 14.8078 72.0556 15.251 72.5728 15.5593C73.0904 15.8677 73.6904 16.0219 74.3728 16.0219C75.0552 16.0219 75.6552 15.8677 76.1728 15.5593C76.6904 15.251 77.0948 14.8078 77.3864 14.2297C77.6784 13.6514 77.8244 12.977 77.8244 12.2062C77.8244 11.4354 77.6784 10.7609 77.3864 10.1827C77.0948 9.60452 76.6904 9.16136 76.1728 8.85312C75.6552 8.54468 75.0556 8.39048 74.3728 8.39048ZM88.0296 18.0702L85.3048 13.5277H84.2808V18.0702H81.9524V6.4084H86.3948C87.7488 6.4084 88.7808 6.73876 89.4912 7.39936C90.2012 8.06012 90.556 8.93012 90.556 10.0093C90.556 10.8902 90.3112 11.6282 89.8212 12.2228C89.3312 12.8174 88.624 13.2137 87.6996 13.412L90.6056 18.0701L88.0296 18.0702ZM84.2808 11.9255H86.1968C87.5284 11.9255 88.1948 11.3363 88.1948 10.158C88.1948 9.59624 88.032 9.1586 87.7076 8.8448C87.3824 8.53088 86.8792 8.37392 86.1964 8.37392H84.2808V11.9255Z" fill="white"/>
<path d="M102.296 9.74472C103.187 9.74472 103.876 10.0118 104.36 10.5458C104.844 11.08 105.086 11.9802 105.086 13.2466V16.8145C105.086 17.266 104.946 17.6046 104.665 17.8304C104.384 18.0561 104.035 18.169 103.616 18.169C103.198 18.169 102.849 18.0561 102.568 17.8304C102.287 17.6046 102.147 17.2658 102.147 16.8145V13.1805C102.147 12.74 102.07 12.4317 101.916 12.2555C101.762 12.0794 101.536 11.9912 101.239 11.9912C100.853 11.9912 100.545 12.1289 100.314 12.4042C100.083 12.6795 99.9672 13.0594 99.9672 13.544V16.8145C99.9672 17.266 99.8296 17.6046 99.554 17.8304C99.2788 18.0561 98.9268 18.169 98.4972 18.169C98.0788 18.169 97.7296 18.0561 97.4488 17.8304C97.168 17.6046 97.0276 17.2658 97.0276 16.8145V13.1805C97.0276 12.74 96.9508 12.4317 96.7964 12.2555C96.6424 12.0794 96.4164 11.9912 96.1196 11.9912C95.734 11.9912 95.4288 12.1289 95.2028 12.4042C94.9772 12.6795 94.8644 13.0594 94.8644 13.544V16.8145C94.8644 17.266 94.724 17.6046 94.4432 17.8304C94.1628 18.0561 93.8132 18.169 93.3948 18.169C92.9764 18.169 92.6268 18.0561 92.3464 17.8304C92.0656 17.6046 91.9248 17.2658 91.9248 16.8145V11.0992C91.9248 10.6695 92.0708 10.3421 92.3628 10.1164C92.6544 9.89048 93.004 9.77767 93.4112 9.77767C93.7968 9.77767 94.1188 9.87959 94.3772 10.0832C94.636 10.287 94.7708 10.5816 94.782 10.9669C95.3216 10.1521 96.1472 9.74455 97.2588 9.74455C98.4368 9.74455 99.224 10.2238 99.6204 11.1817C99.8956 10.7412 100.264 10.3916 100.727 10.1328C101.189 9.87407 101.712 9.74472 102.296 9.74472ZM113.343 15.4601C113.596 15.4601 113.803 15.5592 113.962 15.7574C114.122 15.9557 114.202 16.2146 114.202 16.5337C114.202 16.9743 113.987 17.3102 113.558 17.5414C113.183 17.7286 112.74 17.8856 112.228 18.0122C111.716 18.1389 111.246 18.2021 110.816 18.2021C109.914 18.2021 109.127 18.0315 108.455 17.6901C107.784 17.3487 107.266 16.8587 106.903 16.2199C106.54 15.5812 106.358 14.8323 106.358 13.9735C106.358 13.1586 106.531 12.4289 106.878 11.7849C107.225 11.1406 107.709 10.6396 108.331 10.2816C108.953 9.92375 109.655 9.74472 110.437 9.74472C111.196 9.74472 111.862 9.90996 112.435 10.2403C113.007 10.5707 113.45 11.0387 113.764 11.6444C114.078 12.2501 114.235 12.9604 114.235 13.7752C114.235 14.0286 114.177 14.224 114.062 14.3617C113.946 14.4993 113.778 14.5682 113.558 14.5682H109.198C109.275 15.0968 109.446 15.4766 109.71 15.7079C109.974 15.9392 110.365 16.0548 110.882 16.0548C111.158 16.0548 111.411 16.0246 111.642 15.964C111.873 15.9034 112.132 15.818 112.418 15.7079C112.583 15.6419 112.746 15.584 112.905 15.5345C113.065 15.4849 113.211 15.4601 113.343 15.4601H113.343ZM110.519 11.727C110.134 11.727 109.826 11.8509 109.594 12.0987C109.364 12.3465 109.226 12.7072 109.182 13.1806H111.774C111.708 12.2116 111.29 11.727 110.519 11.727ZM122.673 6.34203C123.114 6.34203 123.474 6.46587 123.755 6.71367C124.035 6.96151 124.176 7.27819 124.176 7.66351V16.8147C124.176 17.2331 124.044 17.5634 123.779 17.8056C123.515 18.0479 123.163 18.1691 122.722 18.1691C122.315 18.1691 121.982 18.0617 121.724 17.847C121.465 17.6322 121.319 17.3376 121.286 16.9634C121.055 17.3488 120.716 17.6516 120.27 17.8718C119.824 18.0921 119.332 18.2021 118.792 18.2021C118.099 18.2021 117.48 18.0232 116.935 17.6652C116.39 17.3074 115.963 16.8036 115.655 16.1538C115.347 15.5041 115.192 14.7608 115.192 13.9239C115.192 13.087 115.344 12.3519 115.647 11.7188C115.95 11.0855 116.373 10.5983 116.918 10.2569C117.463 9.91547 118.088 9.74472 118.792 9.74472C119.31 9.74472 119.786 9.84936 120.221 10.0586C120.656 10.2679 120.994 10.5488 121.236 10.901V7.61395C121.236 7.22851 121.366 6.92023 121.624 6.68899C121.883 6.45771 122.233 6.34203 122.673 6.34203ZM119.684 16.0052C120.202 16.0052 120.598 15.8291 120.873 15.4766C121.148 15.1242 121.286 14.6178 121.286 13.9569C121.286 13.3071 121.148 12.809 120.873 12.462C120.598 12.1151 120.202 11.9416 119.684 11.9416C119.178 11.9416 118.787 12.1124 118.512 12.4538C118.236 12.7952 118.099 13.2852 118.099 13.9239C118.099 14.5845 118.239 15.0967 118.52 15.4601C118.8 15.8236 119.188 16.0052 119.684 16.0052ZM127.363 18.1691C126.944 18.1691 126.595 18.0562 126.314 17.8305C126.034 17.6048 125.893 17.266 125.893 16.8147V11.1323C125.893 10.6807 126.034 10.3422 126.314 10.1165C126.595 9.89064 126.944 9.77784 127.363 9.77784C127.781 9.77784 128.131 9.89064 128.411 10.1165C128.692 10.3422 128.832 10.6808 128.832 11.1323V16.8147C128.832 17.2661 128.692 17.6048 128.411 17.8305C128.131 18.0562 127.781 18.1691 127.363 18.1691ZM127.363 8.62148C126.867 8.62148 126.474 8.49211 126.182 8.23327C125.89 7.97455 125.744 7.6304 125.744 7.20088C125.744 6.7714 125.89 6.43011 126.182 6.17679C126.474 5.92359 126.867 5.79688 127.363 5.79688C127.847 5.79688 128.238 5.92359 128.535 6.17679C128.832 6.43011 128.981 6.77152 128.981 7.20088C128.981 7.63052 128.835 7.97455 128.544 8.23327C128.252 8.49211 127.858 8.62148 127.363 8.62148ZM134.315 9.74472C135.57 9.74472 136.497 10.0448 137.098 10.645C137.698 11.2452 137.998 12.1564 137.998 13.3788V16.831C137.998 17.2496 137.874 17.577 137.626 17.8138C137.378 18.0506 137.034 18.169 136.594 18.169C136.208 18.169 135.892 18.0588 135.644 17.8386C135.396 17.6183 135.262 17.3209 135.24 16.9466C135.086 17.3432 134.827 17.6514 134.464 17.8716C134.1 18.092 133.666 18.202 133.159 18.202C132.598 18.202 132.091 18.0892 131.64 17.8633C131.188 17.6376 130.833 17.3237 130.575 16.9218C130.316 16.5199 130.187 16.0657 130.187 15.559C130.187 14.9754 130.338 14.5102 130.641 14.1633C130.944 13.8164 131.425 13.5658 132.086 13.4117C132.746 13.2575 133.638 13.1805 134.761 13.1805H135.207V12.9822C135.207 12.5968 135.119 12.3189 134.942 12.1481C134.766 11.9775 134.469 11.892 134.051 11.892C133.6 11.892 132.939 12.0462 132.069 12.3546C131.816 12.4427 131.602 12.4868 131.425 12.4868C131.15 12.4868 130.93 12.3876 130.765 12.1894C130.6 11.9912 130.517 11.7324 130.517 11.4131C130.517 11.1708 130.567 10.9726 130.666 10.8184C130.765 10.6643 130.924 10.5265 131.144 10.4054C131.53 10.2072 132.014 10.0474 132.598 9.92639C133.181 9.80515 133.754 9.74455 134.315 9.74455L134.315 9.74472ZM133.852 16.2365C134.249 16.2365 134.574 16.096 134.827 15.8152C135.08 15.5344 135.207 15.1736 135.207 14.7332V14.535H134.942C134.238 14.535 133.737 14.5983 133.44 14.7249C133.142 14.8516 132.994 15.0637 132.994 15.361C132.994 15.6143 133.074 15.8236 133.233 15.9888C133.393 16.1539 133.599 16.2365 133.852 16.2365Z" fill="white"/>
</g>
<defs>
<clipPath id="clip0_724_1061">
<rect width="138" height="24" fill="white"/>
</clipPath>
</defs>
</svg>
