<svg width="160" height="20" viewBox="0 0 160 20" fill="none" xmlns="http://www.w3.org/2000/svg">
<g clip-path="url(#clip0_3749_224)">
<path fill-rule="evenodd" clip-rule="evenodd" d="M94.3682 14.0975C94.2578 14.1638 94.1363 14.236 94.0053 14.314C93.8764 14.3944 93.7299 14.471 93.5778 14.5561C93.4229 14.6386 93.2641 14.7335 93.0879 14.8214C92.3937 15.1863 91.5256 15.5864 90.5037 15.9567C90.378 16.0069 90.2455 16.0477 90.1127 16.0919C89.9798 16.1351 89.8442 16.18 89.7072 16.2251C89.5709 16.2696 89.4283 16.3055 89.2864 16.3479C89.1434 16.3872 89.0009 16.4325 88.8539 16.4688C88.7066 16.5044 88.5579 16.5403 88.4058 16.5766C88.3311 16.5949 88.2548 16.6129 88.179 16.6312C88.1017 16.6465 88.0239 16.6621 87.9458 16.6771C87.7912 16.7078 87.6334 16.7386 87.4741 16.7709C87.3145 16.7951 87.1522 16.8192 86.9882 16.8445C86.9072 16.8574 86.825 16.8698 86.7423 16.8822C86.6603 16.8911 86.5768 16.9001 86.4929 16.9085C86.3249 16.9258 86.157 16.9457 85.9867 16.9622C85.6442 16.9788 85.2987 17.0114 84.9441 17.0069C84.592 17.0203 84.234 16.9964 83.8721 16.9854C83.6941 16.9685 83.5146 16.9512 83.3334 16.9338C83.2431 16.9237 83.1529 16.9209 83.0628 16.9054C82.9717 16.8911 82.8809 16.8766 82.7888 16.8618C82.6981 16.8478 82.606 16.8339 82.5147 16.819L82.3771 16.7979L82.2389 16.7681C82.0551 16.7289 81.8692 16.6893 81.6832 16.6486C81.4966 16.6031 81.31 16.5476 81.1224 16.4981C80.9343 16.4522 80.7463 16.3866 80.5575 16.3251C79.8009 16.0805 79.0336 15.7744 78.2588 15.3992C77.4849 15.0279 76.7013 14.602 75.908 14.1303C75.1149 13.6596 74.3141 13.1363 73.4969 12.5862C72.6879 12.0401 71.8284 11.4366 70.9419 10.8456C70.0593 10.2516 69.1404 9.65888 68.1939 9.07788C67.7147 8.79201 67.2449 8.50281 66.7577 8.23333C66.5161 8.09816 66.2746 7.96298 66.0343 7.82885C65.7891 7.69943 65.5453 7.57088 65.3016 7.44268C65.1797 7.37902 65.058 7.31588 64.9359 7.25222C64.8123 7.19134 64.6894 7.13152 64.5649 7.07186C64.3174 6.95239 64.0712 6.8343 63.8255 6.71605C63.578 6.60145 63.3256 6.49436 63.077 6.38499C62.8276 6.27755 62.5828 6.16488 62.328 6.06999C60.3205 5.26521 58.2722 4.69922 56.2831 4.42293C56.0346 4.38805 55.7855 4.36729 55.5388 4.33991C55.2928 4.31531 55.049 4.28723 54.8063 4.2677C54.3178 4.24677 53.8369 4.222 53.3649 4.21206C52.4216 4.20892 51.5065 4.25723 50.6281 4.36363C48.8706 4.57328 47.2587 4.98387 45.8565 5.54097C44.4527 6.09546 43.2598 6.78494 42.3082 7.50774C42.1873 7.5946 42.0726 7.68705 41.9608 7.7781C41.8492 7.86897 41.7382 7.95513 41.6345 8.04845C41.5304 8.14019 41.4292 8.22932 41.3288 8.31723C41.233 8.40915 41.1384 8.49863 41.0458 8.58671C40.9532 8.67253 40.8668 8.76357 40.7822 8.85096C40.6984 8.93939 40.6149 9.02259 40.5371 9.10893C40.4608 9.19509 40.3859 9.28004 40.3129 9.36254C40.2771 9.40352 40.241 9.44504 40.2058 9.48463C40.1723 9.52614 40.1387 9.56713 40.1057 9.60795C39.5798 10.2524 39.2363 10.7938 39.0189 11.1676C38.9081 11.3525 38.835 11.5016 38.7813 11.5981C38.7299 11.6951 38.7031 11.7443 38.7031 11.7443C38.7033 11.7443 38.743 11.7055 38.8208 11.629C38.9005 11.5538 39.0113 11.4357 39.1664 11.293C39.4735 11.0037 39.9384 10.5938 40.5728 10.1391C41.2051 9.68417 42.0179 9.19771 43.0025 8.7702C43.9857 8.33973 45.1473 7.98199 46.4515 7.75385C47.7551 7.52309 49.2046 7.43379 50.7493 7.50146C51.5214 7.5346 52.3189 7.61536 53.1317 7.73257C53.5367 7.79903 53.944 7.87734 54.3561 7.94728C54.5615 7.99037 54.7674 8.04182 54.9737 8.08839C55.181 8.13758 55.3901 8.17944 55.5979 8.23351C57.2625 8.66764 58.9587 9.30707 60.6803 10.1227C60.8967 10.2175 61.1107 10.3325 61.3271 10.4394C61.5421 10.5488 61.7599 10.6541 61.9769 10.7668C62.1928 10.8824 62.4107 10.999 62.6289 11.1158C62.7374 11.1739 62.8472 11.232 62.9561 11.2902C63.0654 11.3522 63.1738 11.4141 63.2838 11.4762C63.5022 11.5988 63.7225 11.7226 63.9427 11.8468C64.163 11.9755 64.3837 12.1053 64.6053 12.2356C65.0487 12.4896 65.4926 12.7688 65.9427 13.0362C66.8414 13.5874 67.7305 14.1406 68.6172 14.6972C69.503 15.2482 70.3729 15.8011 71.2916 16.3434C72.2029 16.8796 73.1232 17.3866 74.0613 17.8364C74.9984 18.2868 75.9475 18.6838 76.9037 19.0129C77.1452 19.0917 77.3816 19.1744 77.6216 19.2465C77.8634 19.3143 78.1044 19.3827 78.3423 19.4498C78.5823 19.5131 78.8254 19.5651 79.0649 19.6213C79.302 19.6802 79.5453 19.7197 79.7847 19.7624C80.0242 19.8037 80.2608 19.8484 80.5018 19.8726C80.7407 19.8997 80.9758 19.9318 81.2119 19.9522C81.4489 19.9654 81.684 19.979 81.9176 19.9919L82.0919 20.0006L82.266 20.0003C82.3827 19.9993 82.4977 19.9984 82.613 19.9979C82.7272 19.9961 82.8424 19.9949 82.956 19.9938C83.0689 19.9928 83.183 19.9794 83.2959 19.9724C83.521 19.9549 83.7434 19.9375 83.9642 19.9201C84.3985 19.8588 84.8232 19.8074 85.2315 19.7163C85.6427 19.6431 86.0356 19.5315 86.421 19.4336C86.611 19.3778 86.7987 19.3173 86.9829 19.2595C87.0756 19.2302 87.1672 19.2009 87.2589 19.172C87.3482 19.1387 87.4369 19.1059 87.5257 19.0736C87.7023 19.0073 87.8764 18.9423 88.0487 18.8777C88.2176 18.805 88.3836 18.734 88.5483 18.6634C88.63 18.628 88.7113 18.5934 88.792 18.558C88.8711 18.5195 88.9499 18.4821 89.028 18.4441C89.1835 18.3675 89.337 18.2927 89.4876 18.2186C89.6383 18.1429 89.7813 18.0595 89.9247 17.9821C90.0674 17.9024 90.2093 17.8295 90.3445 17.7475C90.4789 17.665 90.6109 17.5833 90.7409 17.5038C90.8709 17.4241 90.9994 17.3477 91.1205 17.2628C92.1019 16.6125 92.8805 15.972 93.4803 15.4134C93.6324 15.2775 93.7672 15.1371 93.8977 15.0119C94.0264 14.8845 94.1486 14.7682 94.2547 14.651C94.3612 14.536 94.4595 14.4303 94.5508 14.333C94.6405 14.2369 94.7217 14.1486 94.7902 14.0656C95.066 13.7384 95.211 13.5666 95.211 13.5666C95.211 13.5664 95.0239 13.6864 94.6688 13.9135C94.5814 13.9716 94.4807 14.0325 94.3691 14.0977L94.3682 14.0975Z" fill="#00C1E7"/>
<path fill-rule="evenodd" clip-rule="evenodd" d="M56.0433 11.6813C55.7367 11.9703 55.2712 12.3807 54.6374 12.8354C54.0039 13.2899 53.1918 13.7762 52.2065 14.2037C51.2243 14.6344 50.0621 14.9925 48.7575 15.2206C47.4542 15.4505 46.0042 15.5412 44.4597 15.4721C43.6876 15.439 42.8911 15.3589 42.0778 15.2421C41.6728 15.1751 41.266 15.0968 40.8529 15.0273C40.6475 14.9839 40.4422 14.9325 40.2355 14.8862C40.0285 14.8369 39.8199 14.7952 39.6121 14.7406C37.9465 14.3066 36.2503 13.6676 34.5297 12.852C34.3123 12.7571 34.0988 12.6423 33.8827 12.535C33.6674 12.4255 33.45 12.3207 33.2326 12.2078C33.0167 12.0918 32.7993 11.9752 32.5809 11.8585C32.4721 11.8004 32.3627 11.7426 32.2532 11.6837C32.1443 11.6225 32.0353 11.5604 31.926 11.4983C31.7068 11.3755 31.487 11.2517 31.2663 11.128C31.047 10.9987 30.8259 10.8695 30.6047 10.7392C30.1603 10.4845 29.7166 10.2063 29.2665 9.93861C28.3686 9.38692 27.4792 8.83366 26.5928 8.2776C25.7065 7.72556 24.8366 7.17369 23.9182 6.63089C23.006 6.09472 22.0856 5.58855 21.1487 5.13785C20.2116 4.68802 19.2615 4.29051 18.3053 3.9619C18.065 3.88289 17.8282 3.80039 17.5874 3.72888C17.3458 3.66015 17.1058 3.59213 16.8669 3.52463C16.6269 3.46027 16.3841 3.40986 16.1456 3.35352C15.9075 3.29387 15.6649 3.25463 15.4249 3.21189C15.186 3.16986 14.9494 3.12573 14.7086 3.10201C14.4686 3.07445 14.2336 3.0434 13.9975 3.02247C13.7609 3.00887 13.5258 2.99561 13.2921 2.98218L13.1185 2.97363L12.9434 2.97416C12.8273 2.97503 12.7122 2.97607 12.5975 2.9773C12.4823 2.97817 12.3676 2.97921 12.2543 2.98061C12.1411 2.98148 12.0268 2.99456 11.9142 3.00154C11.6892 3.01951 11.4666 3.03695 11.2458 3.05422C10.812 3.11544 10.3879 3.16759 9.97917 3.25759C9.56779 3.33102 9.17393 3.443 8.78916 3.54085C8.59854 3.59649 8.41145 3.65719 8.22673 3.71492C8.13462 3.74422 8.04302 3.77318 7.95192 3.80248C7.86216 3.8351 7.77292 3.86859 7.68418 3.90085C7.50854 3.96696 7.33342 4.03254 7.16216 4.09673C6.99276 4.16877 6.82673 4.24045 6.66221 4.3104C6.5802 4.34598 6.49955 4.38104 6.41855 4.41575C6.33941 4.45377 6.2606 4.49284 6.18247 4.53051C6.02704 4.60586 5.87347 4.68104 5.72293 4.75569C5.57272 4.83069 5.42925 4.91424 5.28528 4.99186C5.14383 5.07174 5.0012 5.14483 4.86649 5.2268C4.73111 5.3093 4.59926 5.39041 4.46926 5.46977C4.33909 5.54966 4.21128 5.6264 4.09038 5.71134C3.10883 6.36089 2.33036 7.00154 1.73072 7.56021C1.57799 7.69608 1.44345 7.83701 1.31277 7.96225C1.18446 8.08975 1.06204 8.20522 0.955786 8.32312C0.849363 8.43789 0.750518 8.54394 0.660092 8.64075C0.569666 8.73703 0.489007 8.82563 0.42064 8.90813C0.145153 9.23535 0 9.40698 0 9.40698C0 9.40698 0.186914 9.28785 0.542218 9.06075C0.629781 9.00232 0.729974 8.9418 0.841617 8.87639C0.953092 8.81011 1.074 8.73825 1.20517 8.65976C1.33416 8.57917 1.47982 8.5033 1.63272 8.41818C1.7873 8.33568 1.9466 8.2408 2.12189 8.15272C2.81633 7.78748 3.68422 7.38788 4.70669 7.01758C4.83298 6.96718 4.96534 6.92619 5.0982 6.88241C5.23106 6.83863 5.36594 6.79398 5.50318 6.74932C5.63941 6.70397 5.78203 6.66874 5.92365 6.62653C6.06661 6.58659 6.20958 6.54194 6.35641 6.50531C6.50409 6.4699 6.65295 6.43415 6.804 6.39734C6.87927 6.37938 6.95504 6.36106 7.03149 6.34275C7.10929 6.32775 7.18658 6.31292 7.26421 6.29705C7.41963 6.2667 7.57708 6.23496 7.73638 6.20356C7.89618 6.17897 8.05783 6.1542 8.22202 6.12996C8.30368 6.11705 8.38502 6.10466 8.46803 6.09176C8.55054 6.08321 8.63407 6.07432 8.71759 6.06577C8.88564 6.04815 9.05336 6.02809 9.22377 6.01205C9.56577 5.99495 9.91232 5.96286 10.2659 5.96687C10.6186 5.95396 10.9766 5.97786 11.3388 5.98833C11.5164 6.00559 11.6957 6.02321 11.8771 6.04048C11.9679 6.0499 12.0576 6.05286 12.1484 6.06873C12.2386 6.08304 12.3302 6.09769 12.4213 6.11199C12.5124 6.12629 12.6042 6.14094 12.6958 6.1549L12.8334 6.17548L12.9721 6.20583C13.1559 6.24507 13.3416 6.28536 13.5278 6.32531C13.7141 6.37083 13.9007 6.42665 14.0882 6.47636C14.2768 6.52223 14.4644 6.58729 14.6535 6.64886C15.4098 6.89427 16.1775 7.2002 16.9519 7.57538C17.7263 7.94655 18.51 8.37214 19.303 8.84377C20.0956 9.31488 20.8971 9.8378 21.7142 10.3881C22.5228 10.9342 23.3821 11.5372 24.2688 12.1292C25.1517 12.7229 26.0701 13.3159 27.0168 13.8969C27.4967 14.1824 27.9658 14.4718 28.4528 14.7415C28.6948 14.8765 28.9361 15.0118 29.1764 15.146C29.4216 15.2752 29.6659 15.4039 29.9091 15.5321C30.0315 15.5953 30.1534 15.6589 30.2743 15.7221C30.3981 15.7819 30.5215 15.8428 30.6453 15.9029C30.8928 16.0221 31.1395 16.1405 31.3847 16.2588C31.6334 16.3734 31.8851 16.4804 32.1337 16.5893C32.3827 16.6964 32.6284 16.8094 32.8822 16.9043C34.8902 17.7091 36.9392 18.2756 38.9276 18.5519C39.1761 18.5864 39.4252 18.6075 39.6713 18.6349C39.9179 18.6597 40.1617 18.6876 40.405 18.7064C40.8935 18.7272 41.3738 18.7526 41.8454 18.7626C42.7894 18.765 43.7038 18.7167 44.5828 18.611C46.3405 18.401 47.9521 17.9908 49.3547 17.4335C50.7577 16.8788 51.9511 16.1895 52.903 15.4669C53.0235 15.3793 53.1382 15.2871 53.25 15.1965C53.3622 15.1055 53.4732 15.0191 53.5759 14.9262C53.6801 14.8346 53.7822 14.7453 53.882 14.6572C53.9778 14.5651 54.073 14.4758 54.1646 14.3879C54.2584 14.3018 54.3436 14.2105 54.4289 14.1237C54.5125 14.0349 54.5955 13.952 54.6733 13.8657C54.7506 13.7785 54.8253 13.6942 54.8979 13.6117C54.9339 13.5709 54.9698 13.5301 55.005 13.49C55.0385 13.4481 55.072 13.4068 55.1047 13.3667C55.6312 12.7222 55.9746 12.1803 56.192 11.807C56.3025 11.6216 56.3754 11.473 56.4296 11.3771C56.4804 11.2794 56.5077 11.2293 56.5077 11.2293C56.5077 11.2293 56.4678 11.2691 56.3897 11.3457C56.3105 11.4205 56.2001 11.5386 56.0446 11.6816L56.0433 11.6813Z" fill="#00C1E7"/>
<path fill-rule="evenodd" clip-rule="evenodd" d="M159.456 10.9389C159.369 10.9973 159.268 11.0577 159.156 11.1227C159.046 11.1888 158.925 11.2616 158.793 11.3401C158.664 11.4203 158.518 11.4962 158.365 11.5815C158.211 11.6638 158.052 11.7596 157.876 11.8464C157.182 12.2117 156.314 12.6118 155.292 12.9821C155.165 13.0316 155.033 13.0729 154.9 13.1167C154.768 13.1609 154.633 13.2052 154.496 13.2505C154.359 13.2955 154.216 13.3314 154.075 13.3733C153.932 13.4125 153.79 13.4582 153.642 13.494C153.495 13.5296 153.345 13.5655 153.194 13.6025C153.119 13.6203 153.043 13.6388 152.966 13.6571C152.89 13.6714 152.812 13.6874 152.734 13.7023C152.579 13.733 152.421 13.7643 152.263 13.7957C152.102 13.8198 151.941 13.8449 151.776 13.8697C151.696 13.8821 151.613 13.895 151.531 13.9074C151.448 13.9161 151.364 13.9253 151.28 13.9342C151.114 13.9512 150.945 13.9716 150.775 13.9869C150.432 14.0042 150.086 14.0366 149.732 14.0321C149.38 14.045 149.022 14.0211 148.659 14.0112C148.482 13.9937 148.302 13.9768 148.121 13.9588C148.031 13.9489 147.941 13.9459 147.851 13.9306C147.76 13.9159 147.668 13.9013 147.577 13.887C147.486 13.873 147.394 13.8587 147.302 13.8441L147.165 13.8231L147.027 13.7931C146.843 13.7535 146.658 13.7138 146.471 13.6737C146.285 13.6278 146.098 13.5721 145.91 13.523C145.722 13.4773 145.534 13.4117 145.345 13.3501C144.588 13.1056 143.821 12.7995 143.047 12.4243C142.273 12.0528 141.489 11.627 140.696 11.1559C139.903 10.6844 139.102 10.1619 138.285 9.61104C137.476 9.06527 136.617 8.46195 135.729 7.87014C134.847 7.27606 133.929 6.68425 132.983 6.10273C132.503 5.81686 132.032 5.52767 131.546 5.25819C131.304 5.12301 131.063 4.98783 130.823 4.85318C130.577 4.72376 130.333 4.59626 130.089 4.46806C129.968 4.4037 129.846 4.34091 129.724 4.27724C129.601 4.21707 129.477 4.15707 129.353 4.09689C129.106 3.97741 128.859 3.85881 128.614 3.74107C128.366 3.62613 128.114 3.51991 127.865 3.41002C127.615 3.30275 127.371 3.1899 127.116 3.09537C125.109 2.29024 123.06 1.72372 121.071 1.44831C120.823 1.4129 120.573 1.39162 120.327 1.36476C120.081 1.34017 119.837 1.31226 119.594 1.29272C119.106 1.27179 118.625 1.2465 118.153 1.23743C117.209 1.23447 116.294 1.28261 115.416 1.38866C113.658 1.59831 112.046 2.0089 110.644 2.566C109.241 3.12048 108.049 3.80997 107.096 4.53277C106.975 4.61963 106.86 4.71207 106.749 4.80312C106.637 4.89382 106.526 4.98051 106.423 5.07382C106.319 5.1647 106.217 5.25435 106.117 5.34226C106.02 5.43365 105.926 5.52365 105.834 5.61156C105.741 5.69755 105.655 5.7886 105.571 5.87599C105.487 5.96442 105.403 6.04744 105.326 6.13343C105.249 6.22029 105.174 6.30506 105.101 6.38739C105.065 6.42855 105.03 6.46937 104.994 6.50913C104.96 6.55065 104.927 6.59233 104.894 6.63245C104.368 7.27711 104.024 7.81886 103.807 8.19265C103.696 8.37806 103.623 8.52666 103.57 8.62259C103.518 8.7194 103.492 8.76963 103.492 8.76963C103.492 8.76928 103.532 8.73039 103.61 8.65381C103.689 8.57812 103.799 8.46056 103.954 8.31788C104.261 8.02869 104.726 7.61845 105.361 7.16426C105.993 6.70954 106.806 6.22239 107.792 5.79558C108.774 5.36441 109.936 5.00685 111.24 4.7787C112.543 4.54794 113.993 4.45812 115.538 4.52666C116.31 4.55928 117.107 4.64004 117.92 4.75725C118.325 4.82423 118.732 4.90237 119.145 4.97161C119.35 5.01522 119.556 5.06702 119.763 5.11324C119.969 5.16225 120.178 5.20377 120.386 5.25888C122.051 5.69249 123.747 6.33192 125.468 7.14699C125.685 7.24205 125.899 7.35717 126.115 7.46391C126.331 7.57363 126.548 7.67863 126.765 7.79113C126.981 7.90729 127.199 8.02381 127.417 8.14049C127.525 8.1991 127.635 8.25666 127.744 8.31526C127.853 8.37683 127.962 8.4391 128.072 8.50067C128.291 8.62399 128.51 8.7473 128.731 8.87097C128.951 9.00004 129.171 9.12998 129.393 9.25975C129.837 9.51423 130.281 9.79348 130.731 10.061C131.629 10.6124 132.519 11.1655 133.404 11.7221C134.291 12.2731 135.161 12.826 136.08 13.3686C136.992 13.9044 137.911 14.4115 138.849 14.8611C139.786 15.3115 140.736 15.7091 141.692 16.0371C141.934 16.1161 142.17 16.1991 142.41 16.2711C142.652 16.339 142.892 16.4068 143.13 16.4749C143.37 16.5383 143.614 16.5891 143.853 16.6458C144.09 16.7047 144.333 16.7449 144.573 16.7871C144.813 16.8293 145.048 16.8734 145.289 16.8973C145.528 16.9238 145.763 16.9563 146 16.9768C146.237 16.9903 146.472 17.0032 146.705 17.0171L146.879 17.0255L147.054 17.0246C147.171 17.0236 147.285 17.0236 147.401 17.0227C147.515 17.0217 147.629 17.0201 147.743 17.0187C147.857 17.018 147.971 17.0044 148.083 16.9978C148.309 16.9798 148.531 16.962 148.752 16.9446C149.186 16.8833 149.611 16.8321 150.019 16.7412C150.43 16.6681 150.823 16.5563 151.209 16.4585C151.399 16.4023 151.586 16.3416 151.771 16.2844C151.863 16.2551 151.955 16.2258 152.046 16.1968C152.135 16.1639 152.225 16.1312 152.314 16.0979C152.49 16.0316 152.664 15.9671 152.836 15.9026C153.005 15.8304 153.172 15.7594 153.336 15.6884C153.417 15.653 153.499 15.6177 153.579 15.583C153.658 15.5445 153.737 15.507 153.815 15.4691C153.971 15.3926 154.124 15.3176 154.275 15.2436C154.426 15.1683 154.569 15.0845 154.712 15.0074C154.855 14.9272 154.996 14.854 155.132 14.7718C155.266 14.6893 155.398 14.6087 155.529 14.5292C155.659 14.4491 155.786 14.372 155.908 14.2878C156.889 13.6382 157.668 12.9971 158.268 12.4384C158.42 12.3022 158.554 12.1616 158.685 12.0364C158.814 11.9092 158.936 11.7934 159.042 11.6765C159.149 11.5611 159.248 11.4548 159.338 11.3584C159.428 11.2619 159.509 11.1735 159.577 11.0907C159.853 10.7641 159.998 10.592 159.998 10.592C159.998 10.592 159.811 10.7113 159.456 10.9384V10.9389Z" fill="#00C1E7"/>
<path fill-rule="evenodd" clip-rule="evenodd" d="M120.834 8.70762C120.528 8.99629 120.062 9.40705 119.428 9.86124C118.795 10.316 117.982 10.8031 116.997 11.2301C116.014 11.6604 114.853 12.0188 113.549 12.247C112.245 12.4774 110.795 12.5676 109.251 12.4988C108.478 12.466 107.682 12.3849 106.869 12.2677C106.463 12.2007 106.056 12.123 105.643 12.0541C105.438 12.0103 105.233 11.9587 105.026 11.9119C104.819 11.8632 104.61 11.8214 104.402 11.7668C102.737 11.3328 101.041 10.6938 99.3191 9.87868C99.1027 9.7831 98.8897 9.6685 98.6737 9.56106C98.4578 9.4517 98.2399 9.34687 98.0232 9.23402C97.8068 9.11821 97.5899 9.00204 97.372 8.88518C97.2622 8.82623 97.1538 8.76832 97.0438 8.71024C96.9354 8.64849 96.8256 8.58657 96.7161 8.52483C96.4972 8.40134 96.278 8.27819 96.0572 8.15453C95.8369 8.02528 95.6169 7.89517 95.3951 7.76575C94.9512 7.51109 94.507 7.23202 94.0572 6.96411C93.1592 6.41276 92.2689 5.8602 91.3832 5.3031C90.4971 4.75245 89.627 4.19971 88.7081 3.65691C87.797 3.12091 86.8765 2.61422 85.9389 2.16439C85.0018 1.71386 84.0518 1.31653 83.096 0.987921C82.8552 0.909082 82.6186 0.826407 82.3781 0.754371C82.1365 0.685649 81.896 0.618148 81.6576 0.550473C81.4176 0.486809 81.174 0.435704 80.9359 0.379017C80.6978 0.319888 80.4545 0.280643 80.2157 0.238434C79.9762 0.196049 79.7396 0.151921 79.4993 0.128199C79.2599 0.100815 79.0238 0.0690707 78.7881 0.0486635C78.5516 0.0350586 78.3166 0.021977 78.0828 0.00854663L77.9086 0L77.7334 0.000872105C77.6182 0.00139537 77.5021 0.00209305 77.3869 0.00313958C77.2722 0.00401168 77.158 0.00558147 77.0444 0.00715126C76.931 0.0075001 76.8169 0.0214538 76.7041 0.0280818C76.4796 0.0455239 76.2565 0.0634892 76.0352 0.0807569C75.6019 0.142153 75.1776 0.193607 74.7684 0.284132C74.3577 0.357563 73.9643 0.469541 73.5799 0.566868C73.3886 0.622857 73.2019 0.684254 73.0165 0.741464C72.9244 0.770243 72.8327 0.799546 72.7422 0.828849C72.6519 0.86164 72.5632 0.894431 72.4744 0.927745C72.2979 0.993328 72.1242 1.05856 71.9514 1.12257C71.7833 1.19513 71.6165 1.2663 71.4523 1.33729C71.3703 1.372 71.2886 1.40793 71.2079 1.44264C71.1288 1.48101 71.0502 1.51868 70.9724 1.55653C70.8169 1.6331 70.6634 1.7081 70.5122 1.78223C70.3615 1.85723 70.218 1.94131 70.075 2.01823C69.9326 2.09828 69.7904 2.17137 69.6557 2.25387C69.521 2.33585 69.3885 2.41695 69.2585 2.49631C69.129 2.57567 69.0007 2.65294 68.8798 2.73789C67.8976 3.38726 67.1199 4.0286 66.5201 4.58675C66.367 4.72332 66.2327 4.86355 66.1022 4.98879C65.9737 5.11629 65.8513 5.23176 65.7457 5.34914C65.6383 5.46444 65.5399 5.57013 65.4497 5.66711C65.3591 5.76339 65.2784 5.85217 65.2097 5.93502C64.9344 6.26136 64.7891 6.43352 64.7891 6.43352C64.7891 6.43334 64.9756 6.31439 65.3313 6.08712C65.4187 6.02816 65.5194 5.96834 65.6312 5.90276C65.742 5.83648 65.8634 5.76461 65.9939 5.68595C66.1236 5.60554 66.2687 5.52949 66.4219 5.44455C66.5765 5.36188 66.7352 5.26664 66.9113 5.17908C67.6061 4.81402 68.4731 4.41425 69.4957 4.04343C69.6224 3.99407 69.7542 3.95255 69.8873 3.90877C70.0206 3.865 70.155 3.82087 70.2922 3.77569C70.429 3.73034 70.5706 3.69476 70.713 3.6529C70.8557 3.61348 70.998 3.56796 71.1453 3.53168C71.2932 3.49644 71.4418 3.46016 71.5931 3.42388C71.6688 3.40592 71.7451 3.3876 71.8209 3.36929C71.8977 3.35429 71.9755 3.33894 72.0536 3.32342C72.2087 3.29307 72.366 3.26185 72.5253 3.23063C72.6846 3.20603 72.8467 3.18126 73.0109 3.1565C73.0926 3.14394 73.1746 3.13121 73.2566 3.1183C73.3401 3.10923 73.4236 3.10086 73.5066 3.09179C73.6747 3.07469 73.8426 3.05464 74.0128 3.03911C74.3555 3.02167 74.7019 2.98958 75.055 2.99341C75.4073 2.98085 75.7663 3.0044 76.128 3.01487C76.3055 3.03213 76.4848 3.04905 76.6658 3.0665C76.7566 3.07661 76.8467 3.07993 76.9378 3.09528C77.028 3.10923 77.1193 3.12423 77.2109 3.13853C77.302 3.15214 77.3931 3.16749 77.4849 3.18126L77.6231 3.20202L77.7614 3.23254C77.9451 3.27214 78.1303 3.31208 78.3176 3.35237C78.5028 3.39807 78.6904 3.45388 78.878 3.50237C79.0661 3.54825 79.2537 3.61383 79.4428 3.6754C80.1995 3.92029 80.9669 4.22657 81.7411 4.60192C82.5161 4.97257 83.2998 5.39868 84.0919 5.87031C84.8852 6.3409 85.6858 6.86434 86.5035 7.41499C87.3117 7.96057 88.172 8.56407 89.0585 9.15553C89.9411 9.74996 90.8593 10.3419 91.806 10.9235C92.2859 11.209 92.7557 11.498 93.2422 11.7673C93.4845 11.9028 93.7253 12.0377 93.9653 12.1728C94.2111 12.3016 94.4551 12.4298 94.6985 12.558C94.8204 12.6216 94.9416 12.6853 95.0635 12.7488C95.1878 12.8088 95.3112 12.8691 95.435 12.9293C95.6822 13.0484 95.9287 13.1669 96.1744 13.2851C96.4224 13.3997 96.6749 13.5061 96.9229 13.616C97.173 13.7226 97.4171 13.8358 97.6719 13.9307C99.6796 14.7356 101.728 15.302 103.716 15.5777C103.966 15.6129 104.214 15.6339 104.46 15.6613C104.707 15.6857 104.951 15.7139 105.194 15.7333C105.683 15.7542 106.163 15.7792 106.634 15.7886C107.578 15.7914 108.493 15.7434 109.372 15.637C111.13 15.4277 112.741 15.0173 114.144 14.4597C115.547 13.9054 116.74 13.2157 117.692 12.4934C117.813 12.4064 117.928 12.3136 118.039 12.2226C118.151 12.132 118.262 12.0455 118.365 11.9522C118.469 11.8612 118.571 11.7713 118.671 11.6834C118.768 11.5922 118.862 11.5024 118.954 11.4145C119.048 11.3283 119.133 11.2374 119.218 11.1495C119.302 11.0613 119.386 10.9781 119.463 10.8926C119.54 10.8056 119.614 10.7206 119.687 10.6386C119.723 10.5973 119.759 10.5567 119.794 10.5164C119.828 10.475 119.861 10.4339 119.894 10.3936C120.42 9.74874 120.764 9.20716 120.981 8.83338C121.092 8.64779 121.165 8.49953 121.218 8.4036C121.27 8.30593 121.297 8.25657 121.297 8.25657C121.297 8.25622 121.256 8.29581 121.179 8.37238C121.1 8.44773 120.989 8.56564 120.834 8.70814L120.834 8.70762Z" fill="#00C1E7"/>
</g>
<defs>
<clipPath id="clip0_3749_224">
<rect width="160" height="20" fill="white"/>
</clipPath>
</defs>
</svg>
