<svg width="160" height="20" viewBox="0 0 160 20" fill="none" xmlns="http://www.w3.org/2000/svg">
<g clip-path="url(#clip0_3746_544)">
<path fill-rule="evenodd" clip-rule="evenodd" d="M94.3682 14.0975C94.2578 14.1638 94.1363 14.236 94.0053 14.314C93.8764 14.3944 93.7299 14.471 93.5778 14.5561C93.4229 14.6386 93.2641 14.7335 93.0879 14.8214C92.3937 15.1863 91.5256 15.5864 90.5037 15.9567C90.378 16.0069 90.2455 16.0477 90.1127 16.0919C89.9798 16.1351 89.8442 16.18 89.7072 16.2251C89.5709 16.2696 89.4283 16.3055 89.2864 16.3479C89.1434 16.3872 89.0009 16.4325 88.8539 16.4688C88.7066 16.5044 88.5579 16.5403 88.4058 16.5766C88.3311 16.5949 88.2548 16.6129 88.179 16.6312C88.1017 16.6465 88.0239 16.6621 87.9458 16.6771C87.7912 16.7078 87.6334 16.7386 87.4741 16.7709C87.3145 16.7951 87.1522 16.8192 86.9882 16.8445C86.9072 16.8574 86.825 16.8698 86.7423 16.8822C86.6603 16.8911 86.5768 16.9001 86.4929 16.9085C86.3249 16.9258 86.157 16.9457 85.9867 16.9622C85.6442 16.9788 85.2987 17.0114 84.9441 17.0069C84.592 17.0203 84.234 16.9964 83.8721 16.9854C83.6941 16.9685 83.5146 16.9512 83.3334 16.9338C83.2431 16.9237 83.1529 16.9209 83.0628 16.9054C82.9717 16.8911 82.8809 16.8766 82.7888 16.8618C82.6981 16.8478 82.606 16.8339 82.5147 16.819L82.3771 16.7979L82.2389 16.7681C82.0551 16.7289 81.8692 16.6893 81.6832 16.6486C81.4966 16.6031 81.31 16.5476 81.1224 16.4981C80.9343 16.4522 80.7463 16.3866 80.5575 16.3251C79.8009 16.0805 79.0336 15.7744 78.2588 15.3992C77.4849 15.0279 76.7013 14.602 75.908 14.1303C75.1149 13.6596 74.3141 13.1363 73.4969 12.5862C72.6879 12.0401 71.8284 11.4366 70.9419 10.8456C70.0593 10.2516 69.1404 9.65888 68.1939 9.07788C67.7147 8.79201 67.2449 8.50281 66.7577 8.23333C66.5161 8.09816 66.2746 7.96298 66.0343 7.82885C65.7891 7.69943 65.5453 7.57088 65.3016 7.44268C65.1797 7.37902 65.058 7.31588 64.9359 7.25222C64.8123 7.19134 64.6894 7.13152 64.5649 7.07186C64.3174 6.95239 64.0712 6.8343 63.8255 6.71605C63.578 6.60145 63.3256 6.49436 63.077 6.38499C62.8276 6.27755 62.5828 6.16488 62.328 6.06999C60.3205 5.26521 58.2722 4.69922 56.2831 4.42293C56.0346 4.38805 55.7855 4.36729 55.5388 4.33991C55.2928 4.31531 55.049 4.28723 54.8063 4.2677C54.3178 4.24677 53.8369 4.222 53.3649 4.21206C52.4216 4.20892 51.5065 4.25723 50.6281 4.36363C48.8706 4.57328 47.2587 4.98387 45.8565 5.54097C44.4527 6.09546 43.2598 6.78494 42.3082 7.50774C42.1873 7.5946 42.0726 7.68705 41.9608 7.7781C41.8492 7.86897 41.7382 7.95513 41.6345 8.04845C41.5304 8.14019 41.4292 8.22932 41.3288 8.31723C41.233 8.40915 41.1384 8.49863 41.0458 8.58671C40.9532 8.67253 40.8668 8.76357 40.7822 8.85096C40.6984 8.93939 40.6149 9.02259 40.5371 9.10893C40.4608 9.19509 40.3859 9.28004 40.3129 9.36254C40.2771 9.40352 40.241 9.44504 40.2058 9.48463C40.1723 9.52614 40.1387 9.56713 40.1057 9.60795C39.5798 10.2524 39.2363 10.7938 39.0189 11.1676C38.9081 11.3525 38.835 11.5016 38.7813 11.5981C38.7299 11.6951 38.7031 11.7443 38.7031 11.7443C38.7033 11.7443 38.743 11.7055 38.8208 11.629C38.9005 11.5538 39.0113 11.4357 39.1664 11.293C39.4735 11.0037 39.9384 10.5938 40.5728 10.1391C41.2051 9.68417 42.0179 9.19771 43.0025 8.7702C43.9857 8.33973 45.1473 7.98199 46.4515 7.75385C47.7551 7.52309 49.2046 7.43379 50.7493 7.50146C51.5214 7.5346 52.3189 7.61536 53.1317 7.73257C53.5367 7.79903 53.944 7.87734 54.3561 7.94728C54.5615 7.99037 54.7674 8.04182 54.9737 8.08839C55.181 8.13758 55.3901 8.17944 55.5979 8.23351C57.2625 8.66764 58.9587 9.30707 60.6803 10.1227C60.8967 10.2175 61.1107 10.3325 61.3271 10.4394C61.5421 10.5488 61.7599 10.6541 61.9769 10.7668C62.1928 10.8824 62.4107 10.999 62.6289 11.1158C62.7374 11.1739 62.8472 11.232 62.9561 11.2902C63.0654 11.3522 63.1738 11.4141 63.2838 11.4762C63.5022 11.5988 63.7225 11.7226 63.9427 11.8468C64.163 11.9755 64.3837 12.1053 64.6053 12.2356C65.0487 12.4896 65.4926 12.7688 65.9427 13.0362C66.8414 13.5874 67.7305 14.1406 68.6172 14.6972C69.503 15.2482 70.3729 15.8011 71.2916 16.3434C72.2029 16.8796 73.1232 17.3866 74.0613 17.8364C74.9984 18.2868 75.9475 18.6838 76.9037 19.0129C77.1452 19.0917 77.3816 19.1744 77.6216 19.2465C77.8634 19.3143 78.1044 19.3827 78.3423 19.4498C78.5823 19.5131 78.8254 19.5651 79.0649 19.6213C79.302 19.6802 79.5453 19.7197 79.7847 19.7624C80.0242 19.8037 80.2608 19.8484 80.5018 19.8726C80.7407 19.8997 80.9758 19.9318 81.2119 19.9522C81.4489 19.9654 81.684 19.979 81.9176 19.9919L82.0919 20.0006L82.266 20.0003C82.3827 19.9993 82.4977 19.9984 82.613 19.9979C82.7272 19.9961 82.8424 19.9949 82.956 19.9938C83.0689 19.9928 83.183 19.9794 83.2959 19.9724C83.521 19.9549 83.7434 19.9375 83.9642 19.9201C84.3985 19.8588 84.8232 19.8074 85.2315 19.7163C85.6427 19.6431 86.0356 19.5315 86.421 19.4336C86.611 19.3778 86.7987 19.3173 86.9829 19.2595C87.0756 19.2302 87.1672 19.2009 87.2589 19.172C87.3482 19.1387 87.4369 19.1059 87.5257 19.0736C87.7023 19.0073 87.8764 18.9423 88.0487 18.8777C88.2176 18.805 88.3836 18.734 88.5483 18.6634C88.63 18.628 88.7113 18.5934 88.792 18.558C88.8711 18.5195 88.9499 18.4821 89.028 18.4441C89.1835 18.3675 89.337 18.2927 89.4876 18.2186C89.6383 18.1429 89.7813 18.0595 89.9247 17.9821C90.0674 17.9024 90.2093 17.8295 90.3445 17.7475C90.4789 17.665 90.6109 17.5833 90.7409 17.5038C90.8709 17.4241 90.9994 17.3477 91.1205 17.2628C92.1019 16.6125 92.8805 15.972 93.4803 15.4134C93.6324 15.2775 93.7672 15.1371 93.8977 15.0119C94.0264 14.8845 94.1486 14.7682 94.2547 14.651C94.3612 14.536 94.4595 14.4303 94.5508 14.333C94.6405 14.2369 94.7217 14.1486 94.7902 14.0656C95.066 13.7384 95.211 13.5666 95.211 13.5666C95.211 13.5664 95.0239 13.6864 94.6688 13.9135C94.5814 13.9716 94.4807 14.0325 94.3691 14.0977L94.3682 14.0975Z" fill="#00C1E7"/>
<path fill-rule="evenodd" clip-rule="evenodd" d="M56.0433 11.6817C55.7367 11.9708 55.2712 12.3812 54.6374 12.8359C54.0039 13.2904 53.1918 13.7767 52.2065 14.2042C51.2243 14.6349 50.0621 14.9929 48.7575 15.2211C47.4542 15.451 46.0042 15.5417 44.4597 15.4726C43.6876 15.4395 42.8911 15.3594 42.0778 15.2425C41.6728 15.1756 41.266 15.0973 40.8529 15.0278C40.6475 14.9844 40.4422 14.9329 40.2355 14.8867C40.0285 14.8374 39.8199 14.7957 39.6121 14.7411C37.9465 14.3071 36.2503 13.668 34.5297 12.8525C34.3123 12.7576 34.0988 12.6428 33.8827 12.5355C33.6674 12.426 33.45 12.3212 33.2326 12.2083C33.0167 12.0923 32.7993 11.9756 32.5809 11.859C32.4721 11.8009 32.3627 11.7431 32.2532 11.6842C32.1443 11.623 32.0353 11.5609 31.926 11.4988C31.7068 11.376 31.487 11.2521 31.2663 11.1285C31.047 10.9992 30.8259 10.87 30.6047 10.7397C30.1603 10.485 29.7166 10.2068 29.2665 9.9391C28.3686 9.38741 27.4792 8.83414 26.5928 8.27809C25.7065 7.72605 24.8366 7.17418 23.9182 6.63138C23.006 6.09521 22.0856 5.58904 21.1487 5.13834C20.2116 4.68851 19.2615 4.291 18.3053 3.96239C18.065 3.88338 17.8282 3.80088 17.5874 3.72936C17.3458 3.66064 17.1058 3.59262 16.8669 3.52512C16.6269 3.46076 16.3841 3.41035 16.1456 3.35401C15.9075 3.29436 15.6649 3.25511 15.4249 3.21238C15.186 3.17034 14.9494 3.12622 14.7086 3.10249C14.4686 3.07494 14.2336 3.04389 13.9975 3.02296C13.7609 3.00935 13.5258 2.9961 13.2921 2.98267L13.1185 2.97412L12.9434 2.97464C12.8273 2.97552 12.7122 2.97656 12.5975 2.97778C12.4823 2.97866 12.3676 2.9797 12.2543 2.9811C12.1411 2.98197 12.0268 2.99505 11.9142 3.00203C11.6892 3.01999 11.4666 3.03744 11.2458 3.0547C10.812 3.11593 10.3879 3.16808 9.97917 3.25808C9.56779 3.33151 9.17393 3.44349 8.78916 3.54134C8.59854 3.59698 8.41145 3.65768 8.22673 3.71541C8.13462 3.74471 8.04302 3.77367 7.95192 3.80297C7.86216 3.83559 7.77292 3.86908 7.68418 3.90134C7.50854 3.96745 7.33342 4.03303 7.16216 4.09722C6.99276 4.16925 6.82673 4.24094 6.66221 4.31088C6.5802 4.34647 6.49955 4.38152 6.41855 4.41623C6.33941 4.45426 6.2606 4.49333 6.18247 4.531C6.02704 4.60635 5.87347 4.68153 5.72293 4.75618C5.57272 4.83118 5.42925 4.91473 5.28528 4.99235C5.14383 5.07223 5.0012 5.14531 4.86649 5.22729C4.73111 5.30979 4.59926 5.3909 4.46926 5.47026C4.33909 5.55014 4.21128 5.62689 4.09038 5.71183C3.10883 6.36138 2.33036 7.00203 1.73072 7.5607C1.57799 7.69657 1.44345 7.8375 1.31277 7.96274C1.18446 8.09024 1.06204 8.2057 0.955786 8.32361C0.849363 8.43838 0.750518 8.54443 0.660092 8.64123C0.569666 8.73751 0.489007 8.82612 0.42064 8.90862C0.145153 9.23583 0 9.40746 0 9.40746C0 9.40746 0.186914 9.28834 0.542218 9.06124C0.629781 9.00281 0.729974 8.94228 0.841617 8.87688C0.953092 8.8106 1.074 8.73874 1.20517 8.66025C1.33416 8.57966 1.47982 8.50379 1.63272 8.41867C1.7873 8.33617 1.9466 8.24129 2.12189 8.1532C2.81633 7.78797 3.68422 7.38837 4.70669 7.01807C4.83298 6.96766 4.96534 6.92668 5.0982 6.8829C5.23106 6.83912 5.36594 6.79446 5.50318 6.74981C5.63941 6.70446 5.78203 6.66923 5.92365 6.62702C6.06661 6.58708 6.20958 6.54243 6.35641 6.5058C6.50409 6.47039 6.65295 6.43463 6.804 6.39783C6.87927 6.37987 6.95504 6.36155 7.03149 6.34324C7.10929 6.32824 7.18658 6.31341 7.26421 6.29754C7.41963 6.26719 7.57708 6.23545 7.73638 6.20405C7.89618 6.17946 8.05783 6.15469 8.22202 6.13044C8.30368 6.11754 8.38502 6.10515 8.46803 6.09225C8.55054 6.0837 8.63407 6.0748 8.71759 6.06626C8.88564 6.04864 9.05336 6.02858 9.22377 6.01253C9.56577 5.99544 9.91232 5.96335 10.2659 5.96736C10.6186 5.95445 10.9766 5.97835 11.3388 5.98881C11.5164 6.00608 11.6957 6.0237 11.8771 6.04097C11.9679 6.05038 12.0576 6.05335 12.1484 6.06922C12.2386 6.08352 12.3302 6.09818 12.4213 6.11248C12.5124 6.12678 12.6042 6.14143 12.6958 6.15539L12.8334 6.17597L12.9721 6.20632C13.1559 6.24556 13.3416 6.28585 13.5278 6.3258C13.7141 6.37132 13.9007 6.42713 14.0882 6.47684C14.2768 6.52272 14.4644 6.58778 14.6535 6.64935C15.4098 6.89476 16.1775 7.20069 16.9519 7.57587C17.7263 7.94704 18.51 8.37263 19.303 8.84426C20.0956 9.31537 20.8971 9.83828 21.7142 10.3886C22.5228 10.9347 23.3821 11.5377 24.2688 12.1297C25.1517 12.7234 26.0701 13.3164 27.0168 13.8974C27.4967 14.1829 27.9658 14.4723 28.4528 14.742C28.6948 14.877 28.9361 15.0123 29.1764 15.1464C29.4216 15.2757 29.6659 15.4044 29.9091 15.5326C30.0315 15.5957 30.1534 15.6594 30.2743 15.7226C30.3981 15.7824 30.5215 15.8433 30.6453 15.9034C30.8928 16.0226 31.1395 16.141 31.3847 16.2592C31.6334 16.3738 31.8851 16.4809 32.1337 16.5898C32.3827 16.6969 32.6284 16.8099 32.8822 16.9048C34.8902 17.7096 36.9392 18.2761 38.9276 18.5524C39.1761 18.5869 39.4252 18.608 39.6713 18.6354C39.9179 18.6602 40.1617 18.6881 40.405 18.7069C40.8935 18.7277 41.3738 18.7531 41.8454 18.7631C42.7894 18.7655 43.7038 18.7172 44.5828 18.6115C46.3405 18.4015 47.9521 17.9912 49.3547 17.434C50.7577 16.8793 51.9511 16.19 52.903 15.4674C53.0235 15.3798 53.1382 15.2875 53.25 15.197C53.3622 15.106 53.4732 15.0196 53.5759 14.9267C53.6801 14.8351 53.7822 14.7458 53.882 14.6577C53.9778 14.5656 54.073 14.4763 54.1646 14.3884C54.2584 14.3022 54.3436 14.211 54.4289 14.1242C54.5125 14.0354 54.5955 13.9525 54.6733 13.8662C54.7506 13.779 54.8253 13.6947 54.8979 13.6122C54.9339 13.5714 54.9698 13.5306 55.005 13.4905C55.0385 13.4486 55.072 13.4073 55.1047 13.3672C55.6312 12.7227 55.9746 12.1808 56.192 11.8075C56.3025 11.6221 56.3754 11.4735 56.4296 11.3776C56.4804 11.2799 56.5077 11.2298 56.5077 11.2298C56.5077 11.2298 56.4678 11.2696 56.3897 11.3462C56.3105 11.421 56.2001 11.5391 56.0446 11.6821L56.0433 11.6817Z" fill="#00C1E7"/>
<path fill-rule="evenodd" clip-rule="evenodd" d="M159.456 10.9394C159.369 10.9978 159.268 11.0582 159.156 11.1232C159.046 11.1893 158.925 11.2621 158.793 11.3406C158.664 11.4208 158.518 11.4967 158.365 11.582C158.211 11.6643 158.052 11.76 157.876 11.8469C157.182 12.2121 156.314 12.6123 155.292 12.9826C155.165 13.0321 155.033 13.0734 154.9 13.1172C154.768 13.1613 154.633 13.2056 154.496 13.251C154.359 13.296 154.216 13.3319 154.075 13.3738C153.932 13.413 153.79 13.4587 153.642 13.4945C153.495 13.5301 153.345 13.566 153.194 13.603C153.119 13.6208 153.043 13.6393 152.966 13.6576C152.89 13.6719 152.812 13.6879 152.734 13.7027C152.579 13.7334 152.421 13.7648 152.263 13.7962C152.102 13.8203 151.941 13.8454 151.776 13.8702C151.696 13.8826 151.613 13.8955 151.531 13.9079C151.448 13.9166 151.364 13.9258 151.28 13.9347C151.114 13.9516 150.945 13.9721 150.775 13.9874C150.432 14.0047 150.086 14.0371 149.732 14.0326C149.38 14.0455 149.022 14.0216 148.659 14.0116C148.482 13.9942 148.302 13.9773 148.121 13.9593C148.031 13.9494 147.941 13.9464 147.851 13.9311C147.76 13.9164 147.668 13.9018 147.577 13.8875C147.486 13.8735 147.394 13.8592 147.302 13.8445L147.165 13.8236L147.027 13.7936C146.843 13.754 146.658 13.7143 146.471 13.6741C146.285 13.6283 146.098 13.5726 145.91 13.5234C145.722 13.4777 145.534 13.4122 145.345 13.3506C144.588 13.106 143.821 12.7999 143.047 12.4248C142.273 12.0532 141.489 11.6275 140.696 11.1564C139.903 10.6849 139.102 10.1623 138.285 9.61152C137.476 9.06576 136.617 8.46244 135.729 7.87063C134.847 7.27655 133.929 6.68474 132.983 6.10322C132.503 5.81735 132.032 5.52815 131.546 5.25867C131.304 5.1235 131.063 4.98832 130.823 4.85367C130.577 4.72425 130.333 4.59675 130.089 4.46855C129.968 4.40419 129.846 4.34139 129.724 4.27773C129.601 4.21756 129.477 4.15755 129.353 4.09738C129.106 3.9779 128.859 3.85929 128.614 3.74156C128.366 3.62662 128.114 3.52039 127.865 3.41051C127.615 3.30324 127.371 3.19039 127.116 3.09585C125.109 2.29073 123.06 1.72421 121.071 1.4488C120.823 1.41339 120.573 1.39211 120.327 1.36525C120.081 1.34066 119.837 1.31275 119.594 1.29321C119.106 1.27228 118.625 1.24699 118.153 1.23792C117.209 1.23496 116.294 1.2831 115.416 1.38914C113.658 1.5988 112.046 2.00939 110.644 2.56649C109.241 3.12097 108.049 3.81046 107.096 4.53326C106.975 4.62012 106.86 4.71256 106.749 4.80361C106.637 4.89431 106.526 4.981 106.423 5.07431C106.319 5.16519 106.217 5.25484 106.117 5.34275C106.02 5.43414 105.926 5.52414 105.834 5.61205C105.741 5.69804 105.655 5.78909 105.571 5.87647C105.487 5.96491 105.403 6.04793 105.326 6.13392C105.249 6.22078 105.174 6.30555 105.101 6.38788C105.065 6.42904 105.03 6.46985 104.994 6.50962C104.96 6.55113 104.927 6.59282 104.894 6.63294C104.368 7.2776 104.024 7.81935 103.807 8.19313C103.696 8.37854 103.623 8.52715 103.57 8.62308C103.518 8.71988 103.492 8.77012 103.492 8.77012C103.492 8.76977 103.532 8.73087 103.61 8.6543C103.689 8.5786 103.799 8.46104 103.954 8.31837C104.261 8.02918 104.726 7.61894 105.361 7.16475C105.993 6.71003 106.806 6.22287 107.792 5.79607C108.774 5.3649 109.936 5.00733 111.24 4.77919C112.543 4.54843 113.993 4.45861 115.538 4.52715C116.31 4.55977 117.107 4.64053 117.92 4.75774C118.325 4.82471 118.732 4.90286 119.145 4.9721C119.35 5.01571 119.556 5.06751 119.763 5.11373C119.969 5.16274 120.178 5.20426 120.386 5.25937C122.051 5.69298 123.747 6.33241 125.468 7.14748C125.685 7.24254 125.899 7.35766 126.115 7.4644C126.331 7.57411 126.548 7.67911 126.765 7.79162C126.981 7.90778 127.199 8.02429 127.417 8.14098C127.525 8.19959 127.635 8.25715 127.744 8.31575C127.853 8.37732 127.962 8.43959 128.072 8.50116C128.291 8.62448 128.51 8.74779 128.731 8.87146C128.951 9.00053 129.171 9.13047 129.393 9.26024C129.837 9.51472 130.281 9.79397 130.731 10.0615C131.629 10.6129 132.519 11.166 133.404 11.7225C134.291 12.2735 135.161 12.8265 136.08 13.3691C136.992 13.9049 137.911 14.4119 138.849 14.8616C139.786 15.312 140.736 15.7096 141.692 16.0375C141.934 16.1166 142.17 16.1996 142.41 16.2716C142.652 16.3395 142.892 16.4073 143.13 16.4753C143.37 16.5388 143.614 16.5896 143.853 16.6463C144.09 16.7052 144.333 16.7453 144.573 16.7876C144.813 16.8298 145.048 16.8739 145.289 16.8978C145.528 16.9243 145.763 16.9567 146 16.9773C146.237 16.9908 146.472 17.0037 146.705 17.0176L146.879 17.026L147.054 17.0251C147.171 17.0241 147.285 17.0241 147.401 17.0232C147.515 17.0222 147.629 17.0206 147.743 17.0192C147.857 17.0185 147.971 17.0049 148.083 16.9983C148.309 16.9803 148.531 16.9625 148.752 16.9451C149.186 16.8838 149.611 16.8326 150.019 16.7417C150.43 16.6686 150.823 16.5568 151.209 16.4589C151.399 16.4028 151.586 16.3421 151.771 16.2849C151.863 16.2556 151.955 16.2263 152.046 16.1973C152.135 16.1643 152.225 16.1317 152.314 16.0984C152.49 16.0321 152.664 15.9676 152.836 15.9031C153.005 15.8309 153.172 15.7599 153.336 15.6889C153.417 15.6535 153.499 15.6182 153.579 15.5835C153.658 15.545 153.737 15.5075 153.815 15.4696C153.971 15.3931 154.124 15.3181 154.275 15.2441C154.426 15.1688 154.569 15.085 154.712 15.0079C154.855 14.9277 154.996 14.8544 155.132 14.7723C155.266 14.6898 155.398 14.6092 155.529 14.5297C155.659 14.4496 155.786 14.3725 155.908 14.2883C156.889 13.6387 157.668 12.9976 158.268 12.4389C158.42 12.3027 158.554 12.1621 158.685 12.0368C158.814 11.9097 158.936 11.7939 159.042 11.677C159.149 11.5616 159.248 11.4553 159.338 11.3589C159.428 11.2624 159.509 11.174 159.577 11.0911C159.853 10.7646 159.998 10.5925 159.998 10.5925C159.998 10.5925 159.811 10.7118 159.456 10.9389V10.9394Z" fill="#00C1E7"/>
<path fill-rule="evenodd" clip-rule="evenodd" d="M120.834 8.70762C120.528 8.99629 120.062 9.40705 119.428 9.86124C118.795 10.316 117.982 10.8031 116.997 11.2301C116.014 11.6604 114.853 12.0188 113.549 12.247C112.245 12.4774 110.795 12.5676 109.251 12.4988C108.478 12.466 107.682 12.3849 106.869 12.2677C106.463 12.2007 106.056 12.123 105.643 12.0541C105.438 12.0103 105.233 11.9587 105.026 11.9119C104.819 11.8632 104.61 11.8214 104.402 11.7668C102.737 11.3328 101.041 10.6938 99.3191 9.87868C99.1027 9.7831 98.8897 9.6685 98.6737 9.56106C98.4578 9.4517 98.2399 9.34687 98.0232 9.23402C97.8068 9.11821 97.5899 9.00204 97.372 8.88518C97.2622 8.82623 97.1538 8.76832 97.0438 8.71024C96.9354 8.64849 96.8256 8.58657 96.7161 8.52483C96.4972 8.40134 96.278 8.27819 96.0572 8.15453C95.8369 8.02528 95.6169 7.89517 95.3951 7.76575C94.9512 7.51109 94.507 7.23202 94.0572 6.96411C93.1592 6.41276 92.2689 5.8602 91.3832 5.3031C90.4971 4.75245 89.627 4.19971 88.7081 3.65691C87.797 3.12091 86.8765 2.61422 85.9389 2.16439C85.0018 1.71386 84.0518 1.31653 83.096 0.987921C82.8552 0.909082 82.6186 0.826407 82.3781 0.754371C82.1365 0.685649 81.896 0.618148 81.6576 0.550473C81.4176 0.486809 81.174 0.435704 80.9359 0.379017C80.6978 0.319888 80.4545 0.280643 80.2157 0.238434C79.9762 0.196049 79.7396 0.151921 79.4993 0.128199C79.2599 0.100815 79.0238 0.0690707 78.7881 0.0486635C78.5516 0.0350586 78.3166 0.021977 78.0828 0.00854663L77.9086 0L77.7334 0.000872105C77.6182 0.00139537 77.5021 0.00209305 77.3869 0.00313958C77.2722 0.00401168 77.158 0.00558147 77.0444 0.00715126C76.931 0.0075001 76.8169 0.0214538 76.7041 0.0280818C76.4796 0.0455239 76.2565 0.0634892 76.0352 0.0807569C75.6019 0.142153 75.1776 0.193607 74.7684 0.284132C74.3577 0.357563 73.9643 0.469541 73.5799 0.566868C73.3886 0.622857 73.2019 0.684254 73.0165 0.741464C72.9244 0.770243 72.8327 0.799546 72.7422 0.828849C72.6519 0.86164 72.5632 0.894431 72.4744 0.927745C72.2979 0.993328 72.1242 1.05856 71.9514 1.12257C71.7833 1.19513 71.6165 1.2663 71.4523 1.33729C71.3703 1.372 71.2886 1.40793 71.2079 1.44264C71.1288 1.48101 71.0502 1.51868 70.9724 1.55653C70.8169 1.6331 70.6634 1.7081 70.5122 1.78223C70.3615 1.85723 70.218 1.94131 70.075 2.01823C69.9326 2.09828 69.7904 2.17137 69.6557 2.25387C69.521 2.33585 69.3885 2.41695 69.2585 2.49631C69.129 2.57567 69.0007 2.65294 68.8798 2.73789C67.8976 3.38726 67.1199 4.0286 66.5201 4.58675C66.367 4.72332 66.2327 4.86355 66.1022 4.98879C65.9737 5.11629 65.8513 5.23176 65.7457 5.34914C65.6383 5.46444 65.5399 5.57013 65.4497 5.66711C65.3591 5.76339 65.2784 5.85217 65.2097 5.93502C64.9344 6.26136 64.7891 6.43352 64.7891 6.43352C64.7891 6.43334 64.9756 6.31439 65.3313 6.08712C65.4187 6.02816 65.5194 5.96834 65.6312 5.90276C65.742 5.83648 65.8634 5.76461 65.9939 5.68595C66.1236 5.60554 66.2687 5.52949 66.4219 5.44455C66.5765 5.36188 66.7352 5.26664 66.9113 5.17908C67.6061 4.81402 68.4731 4.41425 69.4957 4.04343C69.6224 3.99407 69.7542 3.95255 69.8873 3.90877C70.0206 3.865 70.155 3.82087 70.2922 3.77569C70.429 3.73034 70.5706 3.69476 70.713 3.6529C70.8557 3.61348 70.998 3.56796 71.1453 3.53168C71.2932 3.49644 71.4418 3.46016 71.5931 3.42388C71.6688 3.40592 71.7451 3.3876 71.8209 3.36929C71.8977 3.35429 71.9755 3.33894 72.0536 3.32342C72.2087 3.29307 72.366 3.26185 72.5253 3.23063C72.6846 3.20603 72.8467 3.18126 73.0109 3.1565C73.0926 3.14394 73.1746 3.13121 73.2566 3.1183C73.3401 3.10923 73.4236 3.10086 73.5066 3.09179C73.6747 3.07469 73.8426 3.05464 74.0128 3.03911C74.3555 3.02167 74.7019 2.98958 75.055 2.99341C75.4073 2.98085 75.7663 3.0044 76.128 3.01487C76.3055 3.03213 76.4848 3.04905 76.6658 3.0665C76.7566 3.07661 76.8467 3.07993 76.9378 3.09528C77.028 3.10923 77.1193 3.12423 77.2109 3.13853C77.302 3.15214 77.3931 3.16749 77.4849 3.18126L77.6231 3.20202L77.7614 3.23254C77.9451 3.27214 78.1303 3.31208 78.3176 3.35237C78.5028 3.39807 78.6904 3.45388 78.878 3.50237C79.0661 3.54825 79.2537 3.61383 79.4428 3.6754C80.1995 3.92029 80.9669 4.22657 81.7411 4.60192C82.5161 4.97257 83.2998 5.39868 84.0919 5.87031C84.8852 6.3409 85.6858 6.86434 86.5035 7.41499C87.3117 7.96057 88.172 8.56407 89.0585 9.15553C89.9411 9.74996 90.8593 10.3419 91.806 10.9235C92.2859 11.209 92.7557 11.498 93.2422 11.7673C93.4845 11.9028 93.7253 12.0377 93.9653 12.1728C94.2111 12.3016 94.4551 12.4298 94.6985 12.558C94.8204 12.6216 94.9416 12.6853 95.0635 12.7488C95.1878 12.8088 95.3112 12.8691 95.435 12.9293C95.6822 13.0484 95.9287 13.1669 96.1744 13.2851C96.4224 13.3997 96.6749 13.5061 96.9229 13.616C97.173 13.7226 97.4171 13.8358 97.6719 13.9307C99.6796 14.7356 101.728 15.302 103.716 15.5777C103.966 15.6129 104.214 15.6339 104.46 15.6613C104.707 15.6857 104.951 15.7139 105.194 15.7333C105.683 15.7542 106.163 15.7792 106.634 15.7886C107.578 15.7914 108.493 15.7434 109.372 15.637C111.13 15.4277 112.741 15.0173 114.144 14.4597C115.547 13.9054 116.74 13.2157 117.692 12.4934C117.813 12.4064 117.928 12.3136 118.039 12.2226C118.151 12.132 118.262 12.0455 118.365 11.9522C118.469 11.8612 118.571 11.7713 118.671 11.6834C118.768 11.5922 118.862 11.5024 118.954 11.4145C119.048 11.3283 119.133 11.2374 119.218 11.1495C119.302 11.0613 119.386 10.9781 119.463 10.8926C119.54 10.8056 119.614 10.7206 119.687 10.6386C119.723 10.5973 119.759 10.5567 119.794 10.5164C119.828 10.475 119.861 10.4339 119.894 10.3936C120.42 9.74874 120.764 9.20716 120.981 8.83338C121.092 8.64779 121.165 8.49953 121.218 8.4036C121.27 8.30593 121.297 8.25657 121.297 8.25657C121.297 8.25622 121.256 8.29581 121.179 8.37238C121.1 8.44773 120.989 8.56564 120.834 8.70814L120.834 8.70762Z" fill="#00C1E7"/>
</g>
<defs>
<clipPath id="clip0_3746_544">
<rect width="160" height="20" fill="white"/>
</clipPath>
</defs>
</svg>
